<svg height="372.032666" viewBox="0 0 578 800" width="268.793601" xmlns="http://www.w3.org/2000/svg" xmlns:xlink="http://www.w3.org/1999/xlink"><linearGradient id="a" gradientUnits="userSpaceOnUse" x1="219.8378" x2="375.71231" y1="526.19843" y2="526.19843"><stop offset="0" stop-color="#e8be41"/><stop offset=".49383149" stop-color="#ffeb00"/><stop offset="1" stop-color="#f1bd3b"/></linearGradient><linearGradient id="b" gradientUnits="userSpaceOnUse" x1="252.46117" x2="339.75507" y1="184.97026" y2="266.35461"><stop offset="0" stop-color="#fed03a"/><stop offset=".52752197" stop-color="#ffe900"/><stop offset="1" stop-color="#e7c824"/></linearGradient><linearGradient id="c" gradientUnits="userSpaceOnUse" x1="219.8378" x2="375.71231" y1="411.04236" y2="411.04236"><stop offset="0" stop-color="#063963"/><stop offset=".497244" stop-color="#145dae"/><stop offset="1" stop-color="#013e67"/></linearGradient><linearGradient id="d" gradientUnits="userSpaceOnUse" x1="163.84593" x2="242.49937" y1="287.34116" y2="212.8718"><stop offset="0" stop-color="#b0b2b9"/><stop offset=".16491786" stop-color="#cacfd6"/><stop offset=".3210291" stop-color="#ebebe9"/><stop offset="1" stop-color="#fff"/></linearGradient><linearGradient id="e" gradientUnits="userSpaceOnUse" x1="150.3253" x2="258.08859" y1="419.02371" y2="308.38354"><stop offset="0" stop-color="#87878c"/><stop offset=".14477371" stop-color="#b5b2b9"/><stop offset=".27873564" stop-color="#e8e8e8"/><stop offset="1" stop-color="#fff"/></linearGradient><linearGradient id="f" gradientUnits="userSpaceOnUse" x1="250.83075" x2="274.84192" y1="267.62509" y2="238.36928"><stop offset="0" stop-color="#9ca780"/><stop offset=".32676283" stop-color="#dcdad6"/><stop offset="1" stop-color="#fff"/></linearGradient><linearGradient id="g" gradientUnits="userSpaceOnUse" x1="155.00385" x2="232.18779" y1="271.51373" y2="327.36572"><stop offset="0" stop-color="#034577"/><stop offset=".46833196" stop-color="#005da0"/><stop offset="1" stop-color="#0963b4"/></linearGradient><linearGradient id="h" gradientUnits="userSpaceOnUse" x1="165.59457" x2="216.41978" y1="404.58652" y2="471.077"><stop offset="0" stop-color="#024572"/><stop offset="1" stop-color="#0272b3"/></linearGradient><linearGradient id="i" gradientUnits="userSpaceOnUse" x1="194.63171" x2="197.38394" y1="461.85205" y2="518.23596"><stop offset="0" stop-color="#045096"/><stop offset="1" stop-color="#033562"/></linearGradient><linearGradient id="j" gradientUnits="userSpaceOnUse" x1="250.1273" x2="322.57498" y1="296.52386" y2="296.52386"><stop offset="0" stop-color="#fdfeef"/><stop offset=".24059324" stop-color="#ddd"/><stop offset=".62972879" stop-color="#848484"/><stop offset="1" stop-color="#262e33"/></linearGradient><linearGradient id="k" gradientUnits="userSpaceOnUse" x1="270.9296" x2="335.23621" y1="346.65829" y2="313.67902"><stop offset="0" stop-color="#e9ebea"/><stop offset="1" stop-color="#202e2f"/></linearGradient><linearGradient id="l" gradientUnits="userSpaceOnUse" x1="274.88547" x2="338.69086" y1="372.2128" y2="345.08469"><stop offset="0" stop-color="#fff"/><stop offset="1" stop-color="#2e3135"/></linearGradient><linearGradient id="m" gradientUnits="userSpaceOnUse" x1="259.3298" x2="275.56354" y1="357.17505" y2="357.17505"><stop offset="0" stop-color="#f8f9ec"/><stop offset="1" stop-color="#43413c"/></linearGradient><linearGradient id="n" gradientUnits="userSpaceOnUse" x1="251.01457" x2="311.71301" y1="317.29581" y2="317.29581"><stop offset="0" stop-color="#f86409"/><stop offset=".33389032" stop-color="#bf2920"/><stop offset="1" stop-color="#5a0705"/></linearGradient><linearGradient id="o" gradientUnits="userSpaceOnUse" x1="367.71915" x2="432.65503" y1="330.8176" y2="264.61923"><stop offset="0" stop-color="#fff"/><stop offset=".6756056" stop-color="#e2e2e2"/><stop offset="1" stop-color="#8c8b8b"/></linearGradient><linearGradient id="p" gradientUnits="userSpaceOnUse" x1="373.4617" x2="437.09195" y1="465.8884" y2="410.97385"><stop offset="0" stop-color="#fff"/><stop offset=".76205057" stop-color="#e5e5e5"/><stop offset="1" stop-color="#9ea09e"/></linearGradient><linearGradient id="q" gradientUnits="userSpaceOnUse" x1="390.01129" x2="417.38818" y1="479.48132" y2="505.81018"><stop offset="0" stop-color="#0961ae"/><stop offset="1" stop-color="#044180"/></linearGradient><linearGradient id="r" gradientUnits="userSpaceOnUse" x1="324.74924" x2="453.12344" y1="289.99506" y2="399.82413"><stop offset="0" stop-color="#0668b2"/><stop offset=".42308113" stop-color="#0169b3"/><stop offset="1" stop-color="#00477a"/></linearGradient><linearGradient id="s" gradientUnits="userSpaceOnUse" x1="359.97055" x2="428.827" y1="244.03729" y2="244.03729"><stop offset="0" stop-color="#0467b6"/><stop offset=".45313886" stop-color="#0069b3"/><stop offset="1" stop-color="#074276"/></linearGradient><linearGradient id="t" gradientUnits="userSpaceOnUse" x1="234.85938" x2="261.19531" y1="355.41602" y2="355.41602"><stop offset="0" stop-color="#df5e1a"/><stop offset="1" stop-color="#6e1019"/></linearGradient><linearGradient id="u" gradientUnits="userSpaceOnUse" x1="304.88477" x2="366.55859" y1="354.65424" y2="354.65424"><stop offset="0" stop-color="#d66419"/><stop offset=".63673693" stop-color="#a7191f"/><stop offset="1" stop-color="#540b0c"/></linearGradient><linearGradient id="v" gradientUnits="userSpaceOnUse" x1="154.04617" x2="439.0983" y1="588.724" y2="588.724"><stop offset="0" stop-color="#003d66"/><stop offset=".50199294" stop-color="#006ab7"/><stop offset="1" stop-color="#0c335e"/></linearGradient><linearGradient id="w" gradientUnits="userSpaceOnUse" x1="141.29877" x2="220.27382" y1="542.13104" y2="542.13104"><stop offset="0" stop-color="#00497a"/><stop offset=".13715054" stop-color="#015ea5"/><stop offset=".47391757" stop-color="#016da7"/><stop offset=".67597783" stop-color="#0069aa"/><stop offset=".91171473" stop-color="#0065ac"/><stop offset="1" stop-color="#13365b"/></linearGradient><linearGradient id="x" gradientUnits="userSpaceOnUse" x1="145.7798" x2="164.97993" y1="505.8324" y2="505.8324"><stop offset="0" stop-color="#243152"/><stop offset=".36081845" stop-color="#0e70b5"/><stop offset=".63507581" stop-color="#0a70b4"/><stop offset="1" stop-color="#293881"/></linearGradient><linearGradient id="y" gradientUnits="userSpaceOnUse" x1="143.17461" x2="164.9196" y1="517.70355" y2="517.70355"><stop offset="0" stop-color="#cacfc9"/><stop offset=".46077174" stop-color="#f3faec"/><stop offset="1" stop-color="#dcdee2"/></linearGradient><linearGradient id="z" gradientUnits="userSpaceOnUse" x1="165.48004" x2="220.24831" y1="555.15472" y2="555.15472"><stop offset="0" stop-color="#c9cacd"/><stop offset=".31956065" stop-color="#f8fffd"/><stop offset=".58179182" stop-color="#ececec"/><stop offset="1" stop-color="#e0dae3"/></linearGradient><linearGradient id="A" gradientTransform="matrix(1.4686732 0 0 1.4694193 -148.33541 -218.16901)" gradientUnits="userSpaceOnUse" x1="288.23682" x2="290.21362" y1="148.34428" y2="687.71515"><stop offset="0" stop-color="#274183"/><stop offset=".5794397" stop-color="#1f487b"/><stop offset=".729056" stop-color="#3776bd"/><stop offset=".78778327" stop-color="#4b7fbe"/><stop offset=".85781533" stop-color="#7b9bcf"/><stop offset="1" stop-color="#fff"/></linearGradient><linearGradient id="B" gradientUnits="userSpaceOnUse" x1="286.03046" x2="281.27582" y1="19.044437" y2="771.40918"><stop offset="0" stop-color="#fff"/><stop offset=".08827347" stop-color="#d1d8f1"/><stop offset=".27337673" stop-color="#849fd0"/><stop offset=".42435244" stop-color="#5789c5"/><stop offset="1" stop-color="#4082c3"/></linearGradient><linearGradient id="C"><stop offset="0" stop-color="#f6d02d"/><stop offset="1" stop-color="#dfd98a"/></linearGradient><linearGradient id="D" gradientTransform="scale(.51296677 1.949444)" gradientUnits="userSpaceOnUse" x1="572.55286" x2="572.55286" xlink:href="#C" y1="222.49231" y2="231.65334"/><linearGradient id="E"><stop offset="1" stop-color="#74502c"/><stop offset="1" stop-color="#b29027"/><stop offset="1" stop-color="#bfac4d"/></linearGradient><linearGradient id="F" gradientTransform="scale(.49491734 2.0205394)" gradientUnits="userSpaceOnUse" x1="602.00134" x2="602.00134" xlink:href="#E" y1="214.75131" y2="223.50833"/><linearGradient id="G" gradientTransform="scale(1.6362612 .61114937)" gradientUnits="userSpaceOnUse" x1="171.70387" x2="171.70387" xlink:href="#C" y1="729.46863" y2="739.85217"/><linearGradient id="H" gradientTransform="scale(1.4830686 .67427763)" gradientUnits="userSpaceOnUse" x1="189.43993" x2="189.43993" xlink:href="#E" y1="661.58179" y2="673.0379"/><linearGradient id="I" gradientTransform="scale(.85393989 1.1710426)" gradientUnits="userSpaceOnUse" x1="336.61621" x2="336.61621" xlink:href="#C" y1="385.63568" y2="397.98877"/><linearGradient id="J" gradientTransform="scale(1.6774838 .59613094)" gradientUnits="userSpaceOnUse" x1="177.60905" x2="177.60905" xlink:href="#C" y1="747.84711" y2="757.9635"/><linearGradient id="K" gradientTransform="scale(1.4750728 .67793264)" gradientUnits="userSpaceOnUse" x1="201.98386" x2="201.98386" xlink:href="#E" y1="658.00861" y2="669.53552"/><linearGradient id="L" gradientTransform="scale(.85220973 1.1734201)" gradientUnits="userSpaceOnUse" x1="349.60983" x2="349.60983" xlink:href="#C" y1="384.8562" y2="397.1824"/><linearGradient id="M" gradientTransform="scale(.86732994 1.1529638)" gradientUnits="userSpaceOnUse" x1="331.50684" x2="331.50684" xlink:href="#E" y1="391.68533" y2="404.17999"/><linearGradient id="N" gradientTransform="scale(.85289653 1.1724752)" gradientUnits="userSpaceOnUse" x1="349.25211" x2="349.25211" xlink:href="#E" y1="385.1655" y2="397.44449"/><linearGradient id="O" gradientTransform="scale(.51297079 1.9494287)" gradientUnits="userSpaceOnUse" x1="656.14441" x2="656.14441" xlink:href="#C" y1="230.03175" y2="239.19289"/><linearGradient id="P" gradientTransform="scale(.49492305 2.0205161)" gradientUnits="userSpaceOnUse" x1="688.63879" x2="688.63879" xlink:href="#E" y1="222.02629" y2="230.78342"/><linearGradient id="Q" gradientTransform="scale(1.6362612 .61114937)" gradientUnits="userSpaceOnUse" x1="197.91142" x2="197.91142" xlink:href="#C" y1="753.51221" y2="763.89575"/><linearGradient id="R" gradientTransform="scale(1.4830782 .67427327)" gradientUnits="userSpaceOnUse" x1="218.35315" x2="218.35315" xlink:href="#E" y1="683.37885" y2="694.8349"/><linearGradient id="S" gradientTransform="scale(.85393989 1.1710426)" gradientUnits="userSpaceOnUse" x1="386.83319" x2="386.83319" xlink:href="#C" y1="398.18362" y2="410.53671"/><linearGradient id="T" gradientTransform="scale(1.6774888 .59612918)" gradientUnits="userSpaceOnUse" x1="203.17197" x2="203.17197" xlink:href="#C" y1="772.49884" y2="782.6153"/><linearGradient id="U" gradientTransform="scale(1.4750728 .67793264)" gradientUnits="userSpaceOnUse" x1="231.05518" x2="231.05518" xlink:href="#E" y1="679.68378" y2="691.21069"/><linearGradient id="V" gradientTransform="scale(.85221268 1.173416)" gradientUnits="userSpaceOnUse" x1="399.9274" x2="399.9274" xlink:href="#C" y1="397.38022" y2="409.70636"/><linearGradient id="W" gradientTransform="scale(.86732895 1.1529651)" gradientUnits="userSpaceOnUse" x1="380.94913" x2="380.94913" xlink:href="#E" y1="404.42969" y2="416.92426"/><linearGradient id="X" gradientTransform="scale(.85289949 1.1724711)" gradientUnits="userSpaceOnUse" x1="399.52914" x2="399.52914" xlink:href="#E" y1="397.69962" y2="409.97855"/><linearGradient id="Y" gradientTransform="scale(.51296533 1.9494495)" gradientUnits="userSpaceOnUse" x1="489.1044" x2="489.1044" xlink:href="#C" y1="230.0293" y2="239.19035"/><linearGradient id="Z" gradientTransform="scale(.49491734 2.0205394)" gradientUnits="userSpaceOnUse" x1="515.50812" x2="515.50812" xlink:href="#E" y1="222.02373" y2="230.78075"/><linearGradient id="aa" gradientTransform="scale(1.6362612 .61114937)" gradientUnits="userSpaceOnUse" x1="145.5424" x2="145.5424" xlink:href="#C" y1="753.51221" y2="763.89575"/><linearGradient id="ab" gradientTransform="scale(1.4830782 .67427327)" gradientUnits="userSpaceOnUse" x1="160.57507" x2="160.57507" xlink:href="#E" y1="683.37885" y2="694.8349"/><linearGradient id="ac" gradientTransform="scale(.85393584 1.1710482)" gradientUnits="userSpaceOnUse" x1="286.48874" x2="286.48874" xlink:href="#C" y1="398.18173" y2="410.53479"/><linearGradient id="ad" gradientTransform="scale(1.6774838 .59613094)" gradientUnits="userSpaceOnUse" x1="152.09047" x2="152.09047" xlink:href="#C" y1="772.49658" y2="782.61298"/><linearGradient id="ae" gradientTransform="scale(1.4750685 .67793463)" gradientUnits="userSpaceOnUse" x1="172.96411" x2="172.96411" xlink:href="#E" y1="679.68176" y2="691.20868"/><linearGradient id="af" gradientTransform="scale(.85221268 1.173416)" gradientUnits="userSpaceOnUse" x1="299.3782" x2="299.3782" xlink:href="#C" y1="397.38022" y2="409.70636"/><linearGradient id="ag" gradientTransform="scale(.86732895 1.1529651)" gradientUnits="userSpaceOnUse" x1="282.15222" x2="282.15222" xlink:href="#E" y1="404.42969" y2="416.92426"/><linearGradient id="ah" gradientTransform="scale(.85289949 1.1724711)" gradientUnits="userSpaceOnUse" x1="299.06091" x2="299.06091" xlink:href="#E" y1="397.69962" y2="409.97855"/><path d="m577.88295 36.773181-.10251 481.270969c-.01469 68.51564-25.17512 127.32915-72.32658 176.43009-57.57448 59.95569-135.75431 93.14855-216.58758 105.52576-81.61872-12.16209-162.13491-47.16278-219.63582-108.20304-30.069175-31.92034-51.11673-69.13515-62.2410485-111.65177-6.05196167-23.13204-6.98941577-44.09742-6.98941577-67.78064v-475.876583c31.51038327-8.508378 61.54798127-15.125174 90.79220227-20.238606 69.261892-12.1112476 134.072972-15.79478788 203.447072-16.22709104 64.82342-.40409031 131.04633 4.70934194 188.6828 14.18606804 35.74883 5.877971 68.19725 12.908407 94.96088 22.564843z" fill="url(#A)"/><g fill-rule="evenodd"><path d="m13.550415 53.230531c93.897855-20.542041 190.178495-34.623634 290.521625-34.15048 83.14085.392188 169.08115 11.01844 258.77287 34.15048l-.0997 464.809949c-.0118 55.15068-18.6053 112.02279-69.33812 164.85371-42.78906 44.55823-110.09703 84.53275-205.13179 99.08764-98.42447-14.66701-167.78785-58.77412-208.001593-101.46296-12.45332-13.21963-22.219116-26.54888-30.457785-39.6079-37.626526-59.64109-36.265507-113.92276-36.265507-128.54642z" fill="url(#B)"/><path d="m13.550415 375.23053h549.294495l-.0997 142.80995c-.0385 55.15067-18.6053 112.02279-69.33812 164.85371-42.78906 44.55823-110.09703 84.53275-205.13179 99.08764-98.42447-14.66701-167.78785-58.77412-208.001593-101.46296-12.45332-13.21963-22.219116-26.54888-30.457785-39.6079-37.626526-59.64109-36.265507-113.92276-36.265507-128.54642z" fill="#1c0b3a"/><path d="m27.612095 71.0119c89.090335-19.490304 180.441425-32.850926 275.647015-32.401989 78.88409.372101 160.42426 10.454302 245.5238 32.401989l-.0946 441.01183c-.0117 52.32699-17.6527 106.28727-65.78802 156.41327-40.59827 42.27685-104.4601 80.20469-194.6291 94.01438-93.38516-13.91606-159.19716-55.76491-197.351981-96.26809-11.815711-12.54279-21.081497-25.18959-28.898348-37.57999-35.700068-56.58748-34.408737-108.08995-34.408737-121.96489z" fill="#fff"/></g><g transform="matrix(1.4085325 0 0 1.409248 -133.07726 -198.40003)"><path d="m197.0542 483.9248c-.958.4727-1.8189 1.0131-2.4804 2.0636-.8137 1.2927-.9952 2.57-1.1709 4.0644.7834-.8488 1.6307-1.4818 2.4082-2.7252.8276-1.4271.9375-1.9403 1.2431-3.4028zm61.7782-213.2783c-1.8422-.1512-3.7291-.6878-5.6762-1.9722l-.7738-1.6941c-.4699.0438-.937.0766-1.3999.0986-2.1086-1.6195-3.5666-3.4779-4.8252-5.8085l-.0121-1.7747c-.0452-.008-.0892-.0157-.1309-.0245l-.5503-.1155-.1919-.5286c-2.4627-6.7857-1.1112-14.9384 4.6003-19.636l1.115-.0273.5566-.9029c-.1836.067-.362.138-.5352.2136l-2.6339-.2174c-.6415-5.9806.6797-11.8447 8.0714-10.8336 3.1045.4246 6.0408 1.9787 8.7705 3.5502.959.5523 2.2514 1.2876 3.7979 2.096 1.3248.6923 3.5118 1.685 4.8611.2682.3015-.3167.5935-1.4242.5212-2.1395-.1064-1.0538-.6067-2.0631-.7884-2.964-.9914.0953-2.1112.135-2.891.162-2.0563.0713-4.035-.3476-5.5206-1.6822-2.011-1.8068-2.4086-4.7494-1.9531-7.3014l1.1776-1.6296c-1.1908-2.1971-1.9387-4.6991-1.8811-7.1394-.3377-.5093-.5988-.983-.8079-1.5907-.8175-2.3745-.1213-4.7309 2.6531-5.0969.5579-.0736 1.1855-.0713 1.7844.0417.6562.1241 1.2168-.1572 1.6604-.7037.266-.3276.7801-1.0056.6689-1.4957-.3031-.3367-.5508-.7927-.7227-1.3908-.549-1.9102.201-3.8962 1.3882-5.4209 1.3964-1.794 3.2972-3.2793 5.3963-4.1359 1.6357-.6676 3.4324-1.0003 5.1871-1.2882-.6054-1.3366-2.4726-3.7572-3.1452-4.4078-1.6924-1.6378-.202-4.1524 2.2984-2.6425 9.6421 5.8226 15.7473 13.0102 18.8413 23.8717.8943-.1479 1.937-.007 2.3619.8293.5379 1.0592 1.0599 2.1375 1.5614 3.2328l.7434-.1054c.3488-.0458.885.1873 1.2171.6266.683.9029 1.5945 2.6521 2.0313 3.2982 3.4772 5.1406 7.0549 9.7449 11.9082 13.7178 2.2386 1.8323 4.6154 3.5777 7.1153 5.038 2.9673 1.7328 6.1695 3.2873 8.9176 5.353 4.6933 3.5282 7.8878 8.93 9.932 14.3512 1.8392 4.8778 2.8159 10.6757 2.4982 15.8952l-.0566.9285-.93.021-.1759.007c.1572.0817.3043.1787.4411.294 1.9595 1.6536 3.4809 4.738 3.6131 7.743.1322 3.0052-.9969 5.9338-3.0724 7.2756-.3425.2211-1.504-.0567-1.7644.0616 2.4597 2.4767 4.5522 5.3209 6.5145 8.1942 3.7549 5.4976 7.0504 11.3352 10.5839 16.9864.8885-2.5532 1.4279-5.2104 1.9284-7.8655.6097-3.235 1.2146-7.0696 3.0492-9.857 1.0915-1.6582 5.0375-6.4636 9.366-7.3739 1.1203-.2356 1.6888-.2869 2.3352.5728.1256 1.9823-.0668 4.3401.2244 6.3103.8729 2.1715 3.0275 4.1813 4.5029 5.9798 2.3819 2.9039 3.6134 5.2603 3.1231 8.749 2.4845-2.4458 3.4162-6.7197 3.2362-10.0487-.2674-4.961-2.0126-9.7344-1.1101-14.7555.5834-3.2456 2.4567-6.4558 4.8434-8.7533.6162-.594 1.806-.8195 2.4132-.1418.8546.952 1.9079 2.3872 2.8768 2.8988 1.3822.7303 2.7825.704 4.0985 1.1858 1.5341.5622 2.6918 1.3612 3.8232 2.5333 1.3594 1.4079 2.3862 3.1357 3.3947 4.8588 2.4469-6.6484 3.8402-13.5211-.8172-19.7348-7.18 2.438-11.9071 4.2845-12.9739 4.6285-3.3869 1.0928-7.131 2.1044-10.7183 1.5652-5.5757-.8374-12.4663-4.2885-16.5608-9.0905-.8452-.7032-.3169-1.6208.4116-1.8061 2.7825-.4679 9.2474-1.7545 12.1619-3.3265-7.1403-3.3078-12.3263-7.3135-16.582-14.2081-4.2506-6.8859-6.2308-15.1834-5.2147-23.3791.2543-2.0515 2.1031-1.5606 2.4416-.6951.9992 2.5558 3.6599 5.4027 6.8153 6.063 2.8068.5872 5.9796.3574 8.8321.2143 3.6299-.182 8.0162-.4656 11.4386.9148 2.4415.9846 4.5168 2.0796 6.6322 3.6337-.141-1.1224-.2085-1.8713-.251-3.0068-.0553-1.4684.4229-2.8551.6075-4.2939.0525-.4132.0571-.824.05-1.2401-.0152-.939.0948-2.7772.3016-3.6945-.0273-1.0933 1.9152-1.6532 2.8507.2275 2.1736 3.5401 4.0186 6.9831 7.5325 9.3089 2.4913 1.6483 5.3272 2.6688 8.0116 3.9056 3.0422 1.4009 4.9458 3.0977 5.3396 6.5784.4343 3.8331-.7219 8.1687.4095 11.8258 1.1355 3.6695 3.6748 6.7438 5.5466 10.0491 1.3243 2.3379 2.6435 5.0949 3.5722 7.8081 1.6251.2045 1.7861 2.1916.8362 2.779.4285 1.8873.5943 4.0295.6716 5.9592.156 1.0978.4262 2.0515.6674 3.1367.2414 1.0851.4552 2.3032.4982 3.4248.1491 3.8588-.5779 7.6932-2.0328 11.3902 5.3254-1.443 11.6678-1.0935 17.2573 3.1264 1.0746.8867 1.1861 2.2231-.2869 2.8962-.6028.316-1.2125.6191-1.8207.9249-.8362.4202-1.9476.8941-2.6837 1.4522-1.2492.9477-1.6802 2.1486-2.4071 3.5068-1.3099 2.4463-2.1029 5.0749-3.4987 7.4828-1.7911 3.0892-3.6854 5.3836-6.8572 7.0502-2.2841 1.2001-4.8134 1.9263-7.3631 2.3619 1.7012 1.077 3.0019 2.619 4.9539 3.4804 1.0386.4585 2.4761.1962 3.647.222 2.7444-.2131 2.3864 1.7416 1.5535 2.4898-2.8052 2.3434-10.6784 6.8777-14.2407 7.2953-2.1511.2523-4.4213.0692-6.5676-.1701-2.5417-.2831-5.0661-.8238-7.5923-1.2174-3.6792-.5738-7.0726-1.1188-10.8016-1.0068-3.1672.0951-6.1376.564-7.4454 1.6926 8.3625 3.8176 18.4237 3.5813 28.2492 2.9906 1.8766-.1128 3.7472-.4457 5.6119-.6813 5.4682-.6913 11.4461-1.8012 16.9444-1.214 1.8839.2012 3.6473.6928 5.3945 1.4415 2.5484 1.092 5.1396 2.9752 7.5066 4.481 2.573-.2144 4.9501-.0802 7.5289.1061 1.4873.1069 1.6091 2.0351.185 2.6382-2.2558.955-3.5285 2.1504-4.6248 4.3197-1.1938 2.3624-1.3723 5.1609-2.4016 7.6461-.7656 1.8483-2.1905 3.735-3.6955 5.0376-2.871 2.486-7.3545 1.7408-10.9745 2.6945 8.8289 6.2519 13.7815 16.3434 13.6807 26.8141-.0872 9.0349-3.325 17.7353-6.9528 25.8792-3.1812 7.1414-7.8694 14.2054-12.5323 20.4646-3.3407 5.4657-9.957 19.7136-12.167 26.2149.2998.473.5278.4902.6969.8739.5073 1.1514.4866 3.0029.2972 4.3606-.1061.7593-.3627 1.4709-.737 2.1384-.9937 1.7712-3.0184 3.3743-3.6625 5.0768-.4638 1.2262-.3893 3.9723-.5063 5.402-.1418 1.7393-.6797 4.4761-2.5351 5.2054-.7775.3053-1.7163.1683-2.4473-.1942-2.549-1.2641-4.6844-3.3801-7.3009-4.3376-.6825-.2497-1.1286-.4314-1.8364-.5199-.9375-.1173-1.0434.7454-.1719 1.3632 1.5437 1.0948 3.2504 1.0384 5.0724 1.5131 2.5331.6605 4.6114 2.0818 5.8176 4.4476.9681 1.8988.9292 3.486 1.2502 5.5079.2475 1.5616.4735 2.9714 1.3739 4.3149 1.3523 2.0186 3.7231 3.9559 5.538 5.5852.4995.4485 1.1307.6651 1.0879 1.4656-.0434.8135-.7254 1.1052-1.3222 1.4499-3.8073 2.1997-12.1357 4.7719-16.2097 2.4535-2.1753-1.2379-2.5909-4.3113-2.7233-6.763-.7237 2.5467-2.0642 5.9367-2.6982 8.5071-.4398 1.7836.0266 4.8265.47 6.6075.2775 1.116.5793 2.2793.6802 3.4264.072.82.2313 1.6149-.6259 1.9971-.5814.2596-1.2391-.0475-1.7944-.2077-4.7391-1.3675-11.3466-5.2266-12.2576-10.4821-.6885-3.9721 1.2781-7.9161 3.137-11.2787.5894-1.067 1.2085-2.1317 1.7353-3.2335.9431-1.9722 1.5252-2.6077.9074-5.0651-.8134 1.7942-1.2469 4.0651-1.9489 5.9728-.3678.9989-.9686 1.9385-2.146 2.7598-1.0417.7267-2.1787 1.3227-3.3187 1.8786-1.1375.5548-2.2962 1.0634-3.444 1.5965-.3643.1691-.8398.3754-1.2717.6039v19.6496c0 6.3009-4.0103 10.617-8.9806 13.7014l-70.3733 43.6854-69.1766-42.6579c-6.2036-3.8257-8.8608-8.6656-8.8608-16.0506v-17.2321l-.1354.0341c-2.4651.6188-4.8584 1.0419-7.172.5523-1.8493-.3913-3.6672-1.0829-4.6548-2.756-.009 1.2103-.111 2.1665-.338 3.3664-.7467 3.9463-3.0712 8.3186-5.3942 10.8352-1.028 1.114-3.1523 2.2398-4.5785 1.1066-.6868-.5457-.7775-1.4142-.6744-2.256.4404-3.5939.2925-7.1163-.7272-10.6043-.8114-2.7765-2.4089-5.626-3.1288-8.4308-.1487 1.9491-.6279 4.033-1.297 5.4288-.3132.6537-.7351 1.2457-1.2492 1.7563-1.5832 1.574-3.6986 2.1117-5.8773 2.1139-2.6293.003-5.3522-.8303-7.3443-2.3156-.8279-.6176-1.5859-1.4914-1.3799-2.6006.3164-1.7069 3.0388-2.4456 4.6877-3.013-.5903-7.3937 2.1799-14.0849 8.2407-18.2215-1.2343.4785-2.6436.4009-3.915-.0693-1.9365-.7158-2.729-2.7463-3.9104-4.8757-.7844-1.414-1.9701-3.1683-3.4572-4.3556-1.3023-1.0401-2.8379-1.5889-4.5378-1.8809-1.026-.1761-1.9636-.5955-1.8973-1.8366.0715-1.3347 1.731-1.4894 2.7916-1.5402 3.3596-.162 6.1786-2.1599 9.7159-1.6256 2.0712.3125 3.5833 1.157 5.2152 2.4163 1.2429.959 2.4972 2.1329 3.918 2.8136.8185.3923 2.1455.5776 3.0298.5483 1.283-6.0499 4.8578-10.59 11.7931-12.3078-1.161-1.4891-2.121-2.1069-3.7726-3.1051-2.7482-1.6607-5.7153-2.9286-8.4985-4.531-3.0993-1.7843-5.8692-3.603-8.3509-6.1446-.6082 1.8101-1.4151 3.5277-2.5275 5.0999-.8711 1.231-1.8579 2.3678-2.826 3.5217-1.4029 1.6726-2.9059 2.9751-2.6617 5.4847.0427.4413.2366 1.0505.3088 1.4337.1927 1.0194-.5748 2.344-2.0568 1.1774-3.5396-2.7861-7.0332-7.0127-8.8734-11.1534-.731-1.645-1.3483-3.4986-1.6589-5.2701-.6337-3.6124-.5265-7.4164-.6175-11.0677-.089-3.5722-.006-6.8016-1.0723-10.2265-3.9643-3.0813-7.4879-7.1803-10.0789-11.7694-3.2271-5.7165-5.0779-12.1948-5.3439-18.4173-.1213-2.8435.1019-5.6958.6732-8.4841 1.846-9.0076 6.9925-16.3765 13.5686-22.6109-2.6976-.5326-4.7761-1.8736-6.3345-3.2239-1.8809-1.6302-2.7481-3.1081-4.9273-5.2921-1.3271-1.3298-3.1774-2.3723-4.3085-3.1263-.8751-.475-.679-1.4072-.157-1.8422 2.3887-2.0925 4.9758-4.3055 7.4639-6.2794 1.9105-1.5154 3.8472-3.0209 5.9005-4.3397 3.0123-1.9344 6.3006-1.3654 9.5334-.4041 4.4344 1.3189 8.907 2.5103 13.4617 3.3378 2.5454.4626 5.1063.9376 7.6816 1.1825 6.2809.5981 11.3945.2063 17.0164-2.8953 2.384-1.3149 4.8889-2.8545 7.0395-4.5221-8.1266-1.8705-17.1421.4166-25.3507 1.2353-8.3473.8314-18.7472-1.2922-25.2142-6.8355-.9926-.5988-1.1013-3.0742 1.2045-2.9895 4.4774.027 7.9424-1.4277 10.317-5.2105-14.0856-6.1156-23.4392-17.8789-25.6836-33.0279-.201-1.5397 1.7282-2.275 2.2257-1.6456 3.6475 4.621 11.4074 5.3555 15.3572 4.4964-3.0439-5.3422-4.4521-11.681-4.4923-17.8006-.0404-6.2226 1.5543-12.6001 5.0232-17.8105 1.0651-1.6001 2.2661-3.1149 3.5603-4.5358 2.5174-2.7641 5.0436-5.2814 6.8893-8.5822 2.0745-3.7104 3.3811-8.4472 4.3146-12.5851 1.248-5.5304 1.6554-10.9137 5.2982-15.5746 2.1996-2.8147 5.016-5.1341 8.2803-6.6066 1.9558-.8811 2.2434-.3359 2.1428 1.8071-.1092 2.3577.9631 3.4264 2.3794 5.552 1.146 1.7198 2.28 3.4096 3.0886 5.3229 1.1294 2.6728 1.3023 5.4425 1.1721 8.3157 2.6693-2.5727 5.6354-4.8616 9.1426-5.8863 4.5022-1.3147 9.2619-1.1691 13.8042-2.2558 5.3123-1.2709 9.4207-3.6475 13.3933-7.3683 1.1069-.9563 2.5285-.5809 2.46 1.6511-.5465 7.245-2.0328 14.6791-5.2848 21.1991-3.1149 6.2461-7.8241 10.3443-13.5049 13.7974 3.2613.8658 6.7139 1.7816 9.7917 3.1734.8617.3068 1.1759 1.8996.0131 2.3644-1.8058.8448-4.3287 1.8357-5.9796 2.9628-1.4289.9759-2.6258 2.2469-4.097 3.1761-1.8632 1.1761-4.3366 1.6782-6.8494 2.0255-2.2876.3162-4.6091.527-6.5329.5806-6.6267.185-12.9102-.3564-19.7399.2164-.9833 2.8348-3.5292 9.9246-3.0661 12.1442.8061 3.8609 2.852 7.1664 5.0663 10.2081.7389-7.4425 2.0839-14.7279 9.8857-18.3072 1.1919-.4082 1.6057-.3556 2.0361.8281 2.0905 5.7531 3.2257 10.7717 2.9716 16.8838-.0862 2.0677-.2914 4.128-.3907 6.195-.0794 1.6551-.084 3.3543.2745 4.9801.1741.7899.4332 1.5442.7828 2.2654 4.3611-3.6961 8.8031-14.1632 10.7133-19.2154.8306-2.1979 3.0118-1.781 2.9115.5943-.1163 2.759.3341 4.3902 2.0644 6.4991.9441 1.1503 2.2348 2.4739 3.2633 3.5479 1.2583 1.3139 2.3821 2.6367 3.5644 4.0201 2.4064 2.8154 4.33 6.0651 6.3079 9.1863.9313 1.4696 1.9901 3.0669 2.9881 4.4928 2.4549-2.1162 4.8924-3.7623 8.0435-4.7142.0298-1.9054.11-4.104.5136-5.8995-.591-1.2472-1.1291-2.5217-1.3045-3.8085-.6828-5.0065 2.1531-9.8532 5.6874-13.3114-1.7199-2.0346-2.6933-4.8947-2.2234-6.2592.4757-1.3819 2.7282-3.3955 5.1672-4.7205.2788-.1517.6696-.1974 1.0626-.2424zm-23.6379 93.3019h14.3204l-.3179-.7204c-1.5895-3.6018-3.9451-6.0603-6.5047-8.9533-1.9883-2.2461-3.3717-4.1652-3.2499-7.0097-2.579 2.5854-2.6766 11.3493-4.2479 16.6834zm15.7211 0h9.9239c-.312-.866-.591-1.749-.8339-2.6491-.8243-3.0532-1.2096-6.1717-1.252-9.3051-2.7224 3.6566-5.2484 7.4781-7.4864 11.3465zm54.4993 0h60.6769c-3.6046-3.7815-7.419-7.9217-10.086-11.4249-2.2277 2.5682-3.5525 5.4008-4.8848 9.953-4.1579-2.9226-7.4682-7.3221-9.8676-12.9013-.5113-1.1888-.9618-2.6079-1.3596-4.184-10.2801 1.9125-17.4796 5.6784-25.127 11.0058-3.2995 2.2987-6.3492 4.9117-9.3519 7.5514zm71.0558.367v49.6165c4.4455-2.4405 8.956-4.7665 14.0261-5.6272 5.1819-.8794 10.45-.585 15.6773-.4988 4.147.0688 8.3327.0332 12.325-1.2391 3.4294-1.0932 7.3067-4.8378 9.7237-7.7776-4.1816-3.0729-9.234-5.407-14.5704-6.652-3.8618 3.3061-5.194 9.8807-6.5781 14.6116l-.1527.522-.5308-.1175c-6.1839-1.3688-10.7654-4.8738-14.1761-10.1226-2.9876-4.5985-5.1321-11.4987-6.3641-16.8168-.201-.8665-.3873-1.7366-.5581-2.6097-.6034-3.0815-.9095-6.1469-1.3493-9.2457-.129-.9069-.1937-1.8199-.338-2.7264-.2884-1.8109-.8177-3.8219-3.0788-3.4926-1.4886.2169-2.9003 1.2477-4.0557 2.1759zm0 57.3008v14.14c.4757-.5561.9613-1.1039 1.464-1.6372 2.7664-2.935 6.2051-5.1561 9.9757-6.5555-1.83-1.2032-3.7018-2.3429-5.6457-3.3538-1.8824-.979-3.8219-1.8268-5.794-2.5935zm-157.3913 83.371v-20.6699c-.6428 1.116-1.7105 1.8284-1.9382 2.9024-.3463 1.6327-.3853 3.1384-.1226 4.7863.4188 2.6245-1.3026 5.3681-.9029 7.5506.4863 2.6541 1.2075 3.671 2.9637 5.4306zm0-24.461v-19.4757c-1.7158 5.8275-4.4412 11.731-6.8964 14.3808-.5895.6363-1.389.8799-1.9582.6929-.4424-.1454-.7288-.4869-.6095-1.3766.3319-3.0485.7369-6.9619-.1792-9.9474-2.1167.1734-4.083.5657-5.7852 1.8323-1.6211 1.2065-2.6701 2.8672-2.7171 4.921-.0361 1.595.3129 3.1938 1.1711 4.552 2.9153 4.6129 9.9813 4.8219 14.7923 4.1247 1.0627-.1541 1.7619-.068 2.1822.296zm0-42.6584v-16.701c-2.5183 1.7603-5.1593 3.4115-8.0124 4.5019 4.3093 4.0914 6.7544 7.763 8.0124 12.1991zm0-25.8196v-25.5996c-1.687-1.7209-3.5087-3.3387-5.1641-4.8768-2.0154-1.8733-4.2701-3.4195-5.006-6.2407-.1916-.7354-.2497-1.4967-.2163-2.2571-2.134 3.1622-4.0482 7.3254-4.7626 10.6777-.2798 1.3142-.3483 2.6734-.4865 4.0075-.1921 1.8541-.5149 3.6604-1.0528 5.4473-.8777 2.9167-2.1122 5.7647-3.4979 8.4896 3.2749-.6397 6.8779-.8771 9.9739.3638 4.9749 1.9931 7.9139 5.6922 10.2123 9.9883zm180.0714 83.6943c.2391-3.8164-.847-4.7044-2.8884-6.7673 1.4056 2.3652 2.4569 3.9698 2.8884 6.7673zm16.2493-30.7285c-2.7193-2.6958-5.5567-5.5919-7.3921-8.9919-.3147-.5832-.5417-1.2042-.6693-1.8549-.3003-1.532-.0276-3.2625.373-4.7483-1.5217 1.1382-3.4382 2.3798-5.2981 3.3227-1.9183.9727-4.033 1.3685-6.0074 2.3374-2.2378 1.098-4.5901 2.6678-6.6864 4.1568 1.5844.3481 3.8128 1.6246 5.4124 2.7042 1.4047.9479 2.8247 2.1228 3.8235 3.5014 1.006 1.388.7183 4.9701.5768 7.1963 1.9292-.7849 3.2749-2.9658 5.0443-4.4061 1.1115-.905 2.5323-1.6208 3.9507-1.8637 1.4327-.2452 2.6222-.1211 4.0663-.2318.7187-.0554 1.9183-.1643 2.4787-.659.1489-.1307.2417-.2887.3276-.4631zm-32.5209 2.074c.1595.2601.4871.3729.8628.3655 1.4069-.027 2.0302-2.7006 2.3267-4.9076-1.3629.3726-3.9516 3.299-3.1895 4.5421zm-177.0406 27.6596c.204-1.7695.4758-3.0015.8802-4.8002.1231-.5458.2783-1.2631.3142-1.8215.0324-.5045-.3847-1.0796-.9633-.9613-.7126.1453-1.0078.6302-1.1069 1.3508-.2515 1.8309.1885 4.5639.8758 6.2322zm-15.0029-90.865c-.3341-.4327-.6883-.8533-1.0361-1.2704-1.9352-2.3192-4.1445-4.4208-5.7872-6.974-1.6372-2.5442-2.3981-5.1546-2.4476-8.0683-5.2934 4.3492-10.9411 9.528-14.3796 15.378-.096.163-.1901.3271-.2821.4921 2.2396 2.7853 5.3548 4.1695 8.978 3.9213 5.1359-.3513 10.066-1.9603 14.9546-3.4787z" fill="#050056" fill-rule="evenodd"/><path d="m283.8159 222.5239c3.1169 5.7796 4.5987 11.6766 3.9632 17.4232-.5786 5.2316-2.5576 10.5285-7.242 15.31.5349-8.9315-2.0929-14.0434-6.5602-18.1007 1.8435.4166 3.6971.7536 5.2686.5685 1.2224-.1438 2.2749-.6544 3.0191-1.3665 2.3323-2.232 2.8884-6.9396 1.5513-13.8345zm61.2039 46.0354c.2436-4.0012-.2879-9.7834-2.435-15.4771-1.9767-5.2423-5.0679-10.4974-9.5935-13.8998-2.5581-1.9228-5.9104-3.5891-8.8198-5.288-2.4102-1.4077-4.8697-3.1837-7.246-5.1288-4.6379-3.7967-8.1323-7.9829-12.6208-14.7008-.3984-.5961-.8594-.6219-1.2881-.5655 4.8601 8.8125 6.5547 18.2513 5.3674 27.4535-.9492 7.355-3.6786 14.9099-9.5612 22.3018.2131.0738.4267.1539.642.2404 2.2434-.4148 4.5191-1.1898 6.2673-1.5043.6175-1.234 1.4873-2.2744 2.5427-3.1366 1.3243-1.0817 2.8161-1.6911 4.5959-2.4449-1.7977-5.6735.7485-11.1352 3.7411-16.0329-1.4456 3.6922-2.1496 6.9348-2.1334 9.5086.0225 3.6508 1.7825 5.9632 5.0612 7.5865 1.8711.9261 4.2209 1.4623 6.3689 1.463 3.2371.001 6.5916-.9292 7.8919-6.1267.1537 2.297-.2776 4.2921-1.55 5.6897-1.2725 1.3978-3.3872 2.1989-6.0954 2.1089-1.7174-.0571-3.5376-.5301-5.3447-.8961-2.1566-.4365-4.2996-.9403-6.2382-.9545-1.8932-.0136-3.8897.3476-5.3775 1.5581-.5081.4133-.959.9646-1.3091 1.6178 2.7231.3862 5.3416 1.3675 8.201 3.4908 3.2014-.4742 6.7278-.9954 8.9965-.635.9216.1464 3.5884 1.6236 5.7872 4.0201 4.6377-.1071 9.3183-.139 14.1496-.2482zm-55.7349-20.2297c9.3473-11.1633 11.0146-29.2597 7.4912-41.6491-2.4522-8.6221-7.1323-16.4998-18.3974-23.3027-1.5121-.9131-1.8607.2876-1.0725 1.0502 1.6529 1.5996 4.3965 5.8421 3.446 5.9961-2.1076.3412-4.0866.6597-5.809 1.3627-2.2145.9039-4.0082 2.4092-5.107 3.8209-.9782 1.2566-1.6729 3.1779-1.2143 4.7734.6693 2.3301 2.9504 1.4489 4.5577.4024 1.1514-.7497 2.1456-1.7739 3.5318-2.5538 1.5485-.8708 3.7946-1.2226 5.0259-.8763 2.1504.6049 3.6592 2.4243 5.1937 6.0471-1.4059-2.4522-3.2539-4.302-5.0339-4.8313-1.5703-.4671-4.07.5958-5.1913 1.7353.8863 1.1415 1.4879 2.2568 1.4302 2.9496-.2163 2.5902-6.6957 2.5753-11.0052 2.2262-.5657-.4694-1.6006-.6552-2.613-.5217-2.1958.2897-2.3985 2.1117-1.8293 3.7653.2.5811.412.9595.8751 1.6269-.1939 3.489 1.4575 6.9909 3.3283 9.3473 1.7358 2.1862 3.8722 3.6543 5.7567 5.3363 2.2749 2.03 3.9359 4.0087 4.3419 6.6874.1804 1.1903.0338 3.0156-.1186 4.329 4.1923-.6274 5.8702-3.937 5.9023-6.0833.0791-5.2498-2.325-7.6989-3.8131-9.5053-.4631-.5624-1.0844-1.2123-1.1236-1.9602-.0437-.836.5407-1.6269 2.1777-1.2353 4.5393 1.0864 8.7745 6.6747 9.9855 12.6493 1.0357 5.1083.6325 11.4259-.7158 18.4136zm10.0447-40.4055c5.0113 9.8625 7.3024 18.8362 7.3555 26.837.0687 10.3944-3.966 21.3405-10.2695 27.8947-.2118-.0339-.4259-.064-.6443-.0905-5.8244-.7098-10.6423 1.0159-15.2706 3.8305-2.0917-.4209-3.3712-1.0917-4.6932-1.2952 1.2257-1.7186 2.5987-3.4772 4.0479-4.9228 3.5426-3.5338 7.5415-6.3221 10.9578-10.3225 2.9625-3.4696 5.6864-8.0749 7.0362-11.985 3.1452-9.1118 3.8646-19.522.0652-30.0048.3943-.2685 1.1279-.5066 1.415.0586zm-33.2984 24.6923c-1.6117-.9386-5.9124-3.6701-9.7219-4.1913-6.1417-.8405-7.4768 3.2138-6.9273 9.3628 3.5358-3.8222 8.9173-5.5459 16.6492-5.1715zm-1.3867-13.4967c.8099 1.64 1.5735 2.8202 3.0333 4.2949 1.3708 1.3852 3.2939 2.5892 4.7862 3.3981-2.186.7553-5.1823.5321-6.5584-.8198-1.4411-1.416-2.2492-3.716-1.8319-6.0569z" fill="url(#b)"/><g fill="url(#f)"><path d="m260.8807 252.267c-.8483 1.3564-2.6799 4.0924-4.4855 4.3037-1.2442.1456-4.7147-2.3856-5.5299-5.9037-.7134-3.0781-.134-7.2908 1.0662-11.6509.3837-1.3948 3.3672-3.1508 7.1133-4.0292.3061-.0718.3207.5043.0414 1.1665-.295.6987-.4092 1.5589-.393 2.1241.0323 1.1322.5851 2.6637 1.7878 3.5606-1.1597 1.2904-2.7906 3.7602-2.601 5.9553.1297 1.5017.9942 2.9287 3.0007 4.4736z" fill-rule="evenodd"/><path d="m261.6651 251.118c-1.3805-1.039-2.3603-2.6551-2.3955-3.7261-.0578-1.7582 1.5824-3.998 2.4846-4.8101 1.7664-.5451 3.7525-.7274 6.9844.8792 2.8273 1.4056 6.7645 5.2748 9.8041 10.0596-.3531 2.2162-.8591 3.8858-1.3106 4.7238-2.1349-3.0281-5.9577-3.3754-7.2438-3.0587-.4044-2.2232-1.7664-4.0151-2.9272-4.611-1.3398-.688-3.291-.8221-5.396.5433z" fill-rule="evenodd"/><path d="m267.9051 253.6546c.6488.962.8086 1.751.9662 2.4737-.4015 1.8045-1.9342 4.1104-4.3499 5.7582-2.6073 1.7787-7.5544 3.6419-13.2166 3.9121-2.0501-1.5771-3.4654-3.784-4.5502-5.607 3.7605.2257 5.3343-1.5538 6.2042-3.4082 2.1317.75 3.7865 1.605 5.4559.7534 1.923-.9811 3.4203-4.4601 4.4155-5.2944 1.4543-1.2192 3.6129-.7548 5.0749 1.4122z"/><path d="m250.3926 240.0947c-.9805 3.9764-1.5291 8.2333-.8069 11.0816.4588 1.8096 1.1822 3.0123 2.3129 4.4766-.2507.4752-1.7805 2.2588-2.5654 2.6223-.5109.2366-2.3033.4029-3.2373.2065-2.4423-6.7195-.8185-14.1316 4.2967-18.387z"/><path d="m278.5653 250.7441c-2.638-3.5325-4.9344-5.7812-6.9292-7.2591-1.9949-1.478-3.6887-2.0591-5.1208-2.3832-1.8196-.412-3.0945-.4574-4.9123-.1136-1.6723-1.4074-2.0161-4.7064.002-5.9467 11.4492-.2184 16.067 9.8668 16.9604 15.7026z" fill-rule="evenodd"/><path d="m253.1813 267.0372c3.5016-.0375 7.714-1.1267 11.0358-3.131 1.5542-.9379 2.8643-2.1048 4.0469-3.5395 1.1111-1.3477 1.8606-2.5911 2.8531-3.5988 2.1227-.0854 4.4446.8593 5.2904 3.9461-6.6478 10.826-19.2195 9.7686-23.2262 6.3232z"/></g><path d="m375.71289 505.32227-78.67578-35.27735-77.19922 35.10938v-43.55469l77.43164-35.26758 78.44336 35.34375z"/><path d="m219.8378 505.1535v19.382c0 7.0635 2.4741 11.6887 8.5005 15.405l68.7773 42.4117 69.9746-43.4379c4.808-2.9838 8.6221-7.0876 8.6221-13.0571v-20.5351l-78.6743-35.2774z" fill="url(#a)"/><path d="m219.8378 364.7067v96.8921l77.4317-35.2668 78.4428 35.3431v-96.9684h-71.1584c-2.099 1.8516-4.1849 3.7026-6.3271 5.4546-3.2952 2.6951-6.7261 4.9956-10.5445 7.154-4.649 2.6284-8.9442 4.3177-11.9865 5.5952-.9429-.8658-1.998-1.5968-2.977-2.4241-5.0787-4.2934-9.1979-9.585-11.5962-15.7797z" fill="#fff" fill-rule="evenodd"/><path d="m219.8378 364.7067v92.5949l16.2645-7.4078v-85.1871z" fill="url(#c)"/><path d="m375.7123 457.378v-92.6713h-16.6648v85.1629z" fill="url(#c)"/><path d="m340.0186 364.7067h-15.5749v69.5718l15.5749 7.0175z" fill="url(#c)"/><path d="m305.0833 364.7067h-.5294c-2.099 1.8516-4.1849 3.7026-6.3271 5.4546-2.7613 2.2586-5.6184 4.2398-8.7185 6.0926v49.3157l7.7612-3.5348 7.8138 3.5207z" fill="url(#c)"/><path d="m261.1226 364.7067h-6.0178v76.5324l15.5749-7.0939v-55.4874c-4.1402-3.938-7.4887-8.6085-9.5571-13.9511z" fill="url(#c)"/><path d="m250.8936 460.6468 2.9385 5.1311 1.3035.5116.4573-1.0867-.092-14.6272-.3033-1.9679-.0617-.1772z" fill="url(#Y)"/><path d="m255.1339 466.3016.6531-.416 3.6809-5.0323-.137-.3465-4.1333-11.8991z" fill="url(#Z)"/><path d="m238.1454 460.7798v.004l13.7112 6.0706 3.279-.5652-4.1867-5.7807-.0101.005z" fill="url(#aa)"/><path d="m248.3426 468.5086 5.7956-1.4914.9974-.7277-16.9902-5.5054z" fill="url(#ab)"/><path d="m248.3426 468.5218-3.6996 12.2342.0758-.0569 1.7237-1.4456 8.7492-12.7355-.0573-.228z" fill="url(#ac)"/><path d="m255.1293 466.2951.007-.004.0197.005 1.2558.2437 15.6876-5.76-12.7681-.2707z" fill="url(#ad)"/><path d="m272.1369 460.7798h-.0379l-16.9651 5.5125.4673.3754 5.9991 1.9266.3425-.0968z" fill="url(#ae)"/><path d="m255.1988 466.653 8.6325 12.4923 1.7103 1.5427.0968.068-3.6956-12.2474v-.0111l-6.8089-2.2052z" fill="url(#af)"/><path d="m244.7188 480.6991 10.3915-7.2351.4454-6.3014-.4183-.8693z" fill="url(#ag)"/><path d="m255.0689 473.4926.0713-.0473 10.4014 7.2427-10.4057-14.3967z" fill="url(#ah)"/><path d="m336.5829 460.6468 2.9385 5.1311 1.3036.5116.4573-1.0867-.0921-14.6272-.3033-1.9679-.0617-.1772z" fill="url(#O)"/><path d="m340.8232 466.3016.6532-.416 3.6809-5.0323-.137-.3465-4.1334-11.8991z" fill="url(#P)"/><path d="m323.8348 460.7798v.004l13.7112 6.0706 3.279-.5652-4.1867-5.7807-.0101.005z" fill="url(#Q)"/><path d="m334.0319 468.5086 5.7956-1.4914.9975-.7277-16.9902-5.5054z" fill="url(#R)"/><path d="m334.0319 468.5218-3.6996 12.2342.0759-.0569 1.7236-1.4456 8.7493-12.7355-.0574-.228z" fill="url(#S)"/><path d="m340.8187 466.2951.007-.004.0198.005 1.2557.2437 15.6877-5.76-12.7681-.2707z" fill="url(#T)"/><path d="m357.8263 460.7798h-.0379l-16.9652 5.5125.4674.3754 5.9991 1.9266.3425-.0968z" fill="url(#U)"/><path d="m340.8882 466.653 8.6325 12.4923 1.7102 1.5427.0968.068-3.6955-12.2474v-.0111l-6.809-2.2052z" fill="url(#V)"/><path d="m330.4082 480.6991 10.3915-7.2351.4454-6.3014-.4183-.8693z" fill="url(#W)"/><path d="m340.7582 473.4926.0713-.0473 10.4014 7.2427-10.4057-14.3967z" fill="url(#X)"/><path d="m293.7006 445.9526 2.9385 5.131 1.3035.5116.4573-1.0866-.092-14.6273-.3033-1.9678-.0617-.1772z" fill="url(#D)"/><path d="m297.9409 451.6074.6531-.4161 3.6809-5.0322-.137-.3466-4.1333-11.899z" fill="url(#F)"/><path d="m280.9524 446.0855v.004l13.7113 6.0707 3.2789-.5653-4.1867-5.7806-.0101.005z" fill="url(#G)"/><path d="m291.1496 453.8144 5.7956-1.4914.9974-.7278-16.9902-5.5054z" fill="url(#H)"/><path d="m291.1496 453.8275-3.6996 12.2343.0758-.0569 1.7237-1.4456 8.7493-12.7355-.0574-.228z" fill="url(#I)"/><path d="m297.9363 451.6008.007-.004.0197.005 1.2558.2437 15.6876-5.76-12.7681-.2707z" fill="url(#J)"/><path d="m314.944 446.0855h-.038l-16.9651 5.5125.4674.3754 5.999 1.9266.3425-.0968z" fill="url(#K)"/><path d="m298.0058 451.9587 8.6325 12.4924 1.7103 1.5427.0968.068-3.6956-12.2474v-.0112l-6.8089-2.2052z" fill="url(#L)"/><path d="m287.5258 466.0049 10.3916-7.2352.4454-6.3014-.4184-.8693z" fill="url(#M)"/><path d="m297.8759 458.7983.0713-.0473 10.4014 7.2428-10.4057-14.3968z" fill="url(#N)"/><g fill-rule="evenodd"><path d="m281.4893 557.5045h32.166l-1.7611-47.4143h2.7641v-19.9368h-3.92l-.0531-11.7449-10.6759-.0521-.002 13.5664h-6.1789l-3.4488-4.2971h-5.1627v22.4645h3.6686z" fill="#1c1c21"/><path d="m285.8492 488.2576v21.2007h5.5223v-.0552h1.0111v.0552h21.6438v-18.673h-3.9172l-.0531-11.7479-9.4148-.046-.002 13.5633h-7.1138l-3.4489-4.2971zm16.9181 25.1047h2.272v5.8604h-2.272zm0 19.4437h2.272v5.8603h-2.272zm-8.728 9.8551h2.2719v5.8603h-2.2719zm2.3174-7.769h2.272v5.8603h-2.272zm-4.9291 0h2.272v5.8603h-2.272zm14.0763-36.9411h2.2719v5.8603h-2.2719zm-6.193 0h2.2719v5.8603h-2.2719zm-6.4457 0h2.2719v5.8603h-2.2719zm-10.6378 58.9216h30.772l-1.7376-46.7824h-18.8792l-.0002 3.968 3.2931.2819.3888 3.8083-.0306.0986c-.4866 1.5709-1.4977 3.2236-1.8339 4.7706.1213.3824.3147.7408.5442 1.0705l5.0378.0144-.0857 3.8409-2.4842 2.4736-.7134-.7164 2.1956-2.1864.0539-2.4037-4.5118-.0129-.1511-.1979c-.3956-.5179-.7192-1.0948-.8933-1.7257l-.0316-.1145.0227-.1168c.3223-1.6513 1.3266-3.258 1.8544-4.898l-.2824-2.7689-3.3836-.2894.0002-4.8962h-1.8462z" fill="#fff"/><path d="m284.8391 380.6798.3463 5.7397c-.7025.3445-1.3058.9353-1.6676 1.8058-.6938 1.6711-.1127 3.6862-.7206 5.486-.5913 1.7504-2.46 2.9056-2.5657 5.0966-.0384.797.1317 1.5081.453 2.1059l-3.9539 4.5972 5.7724 1.4979c.1582.8094.578 1.5981 1.2942 2.2106 1.3783 1.1789 3.0388 1.2009 4.5666 2.3381 1.4863 1.1062 2.0088 3.2464 4.0653 4.0259.7043.2672 1.3931.334 2.0301.2399l3.1364 5.1581 3.1255-4.8972c.5561.0518 1.1572-.0281 1.7894-.2677 2.0783-.7881 2.6069-2.9516 4.1084-4.0684 1.5441-1.1486 3.0431-1.1734 4.4354-2.3629.6759-.5774 1.0907-1.3799 1.2732-2.2181l6.0201-1.4234-3.9481-4.7974c.2894-.6021.432-1.3202.3925-2.1331-.1099-2.2477-1.9794-3.2866-2.5838-5.0826-.6216-1.8467.1218-3.7921-.5892-5.5067-.4037-.9741-1.1034-1.6071-1.9087-1.9435l.4714-5.7357-5.4238 2.1314c-.5063-.4869-1.1875-.8193-2.0517-.9004-1.7611-.1658-3.4398.9989-5.2931.9545-1.8031-.0435-3.6374-1.4495-5.696-.8921-.7075.1916-1.2738.5473-1.7015 1.0068z" fill="#1c1c21" stroke="#050056" stroke-width=".5"/><path d="m297.4636 396.6862c1.1282 0 2.0432.915 2.0432 2.0431 0 1.1282-.915 2.0432-2.0432 2.0432-1.1281 0-2.0431-.915-2.0431-2.0432 0-1.1281.915-2.0431 2.0431-2.0431z" fill="#f2c237" stroke="#050056" stroke-width=".5"/><path d="m298.5756 396.3515 3.7327-5.284c.3761-.5323.5356-1.2333.4664-1.8784-.1039-.9711-.6843-1.6933-1.6944-1.7883-1.1081-.1044-2.3877.708-3.6981.6764-1.2699-.0304-2.6455-.978-3.8573-.6499-1.0305.2791-1.5384 1.2047-1.4775 2.2305.0329.5563.3317 1.2578.655 1.7044l3.6225 5.0019c.3445-.166.7308-.2593 1.1387-.2593.3974 0 .7743.0885 1.112.2467zm1.4775 2.8065 5.6441 1.8329c.5245.1704 1.2508.1767 1.7813.0321 1.0518-.2866 1.519-1.3715 1.4697-2.3907-.0627-1.2899-1.344-2.1254-1.7644-3.3713-.435-1.2886.0364-2.8348-.3951-3.8745-.3941-.9492-1.3559-1.3569-2.3343-1.1418-.6416.1411-1.1509.4588-1.5354.9939l-3.8563 5.4096c.6236.4798 1.0255 1.2336 1.0255 2.0811 0 .1461-.0121.2892-.0351.4287zm-2.1342 2.1565-.0256 5.8651c-.002.5366.0637 1.553.3587 2.0035.5877.8968 1.4942 1.2211 2.5116.8354 1.2191-.4629 1.6878-1.9959 2.7499-2.7861.98-.7285 2.2411-.9125 3.0904-1.638.767-.6549 1.0169-2.0606.5056-2.9299-.3332-.5662-.6802-.8306-1.3081-1.0313l-5.897-1.9373c-.3309.8352-1.0783 1.4598-1.9855 1.6186zm-2.8736-1.5637-5.839 1.918c-.631.2018-1.1234.6868-1.453 1.2482-.5146.8767-.2525 2.0301.5048 2.6777.8625.7376 2.2024.8834 3.2163 1.6379 1.0622.7902 1.5308 2.3233 2.7499 2.7856 1.0091.3825 2.0478.0665 2.6377-.8349.3036-.4641.4876-1.3852.4856-1.9335l-.0258-5.9c-1.0257-.0546-1.8955-.6984-2.2765-1.599zm.7682-3.0621-3.7345-5.2393c-.3773-.5252-.8915-.9585-1.5358-1.1-.979-.2151-1.9401.1926-2.3344 1.142-.4471 1.0766-.0675 2.594-.5 3.8748-.4236 1.254-1.7365 2.1736-1.7995 3.4759-.0518 1.0758.5705 1.9683 1.6094 2.2507.5352.1453 1.4679.0354 1.9889-.1358l5.3712-1.7712c-.0261-.1483-.0397-.3008-.0397-.4565 0-.824.3799-1.5593.9744-2.0406z" fill="#fff" stroke="#050056" stroke-width=".5"/><path d="m303.3692 389.6191 1.1961-1.6931c.5665-.8018.8074-1.8528.703-2.8245-.1593-1.4891-1.0705-2.6018-2.6165-2.7469-1.6329-.1537-3.4016 1.0013-5.2526.9568-1.8488-.0445-3.7004-1.4075-5.5302-.912-1.5707.4256-2.3627 1.8389-2.2699 3.4056.0493.8342.4876 1.87.9729 2.5406l.8903 1.2293c-.0286-1.1951.595-2.3523 1.9107-2.7088 1.4539-.3938 2.7497.5994 4.0231.63 1.3092.0316 2.4947-.7912 3.7386-.6742 1.374.1292 2.0952 1.1572 2.2181 2.3053.0174.1623.0227.3271.0164.4919zm3.991 12.0257 1.8344.5958c.7998.2596 1.8981.2715 2.711.0496 1.617-.4414 2.3849-1.8187 2.3058-3.4486-.0973-1.9856-1.9398-3.0993-2.5543-4.9253-.6218-1.8476.0809-3.8877-.5753-5.4696-.614-1.4817-2.123-2.1329-3.6523-1.7959-.9853.2169-1.7732.7098-2.3637 1.5313l-1.1355 1.6071c.129-.0447.2617-.0819.3992-.1122 1.1284-.2482 2.4499.1706 2.9961 1.4866.4944 1.191-.024 2.6286.409 3.9116.4211 1.248 1.7184 1.9671 1.7942 3.529.0705 1.4593-.7012 2.6539-1.8976 2.9797-.0877.024-.1782.044-.271.0609zm-9.4608 8.0463-.006 1.318c-.003.8213.0966 2.2904.5495 2.9817.8979 1.3703 2.3076 1.871 3.8614 1.2821 1.8465-.7002 2.4279-2.846 3.9673-3.9911 1.3973-1.0394 3.1645-1.2787 4.4048-2.3386 1.1802-1.0081 1.5576-3.1359.7705-4.4744-.5043-.8571-1.0447-1.2709-1.9944-1.574l-1.9031-.6254.0609.1004c.5854.9949.4537 2.7418-.6289 3.6667-.9798.837-2.0343.8544-3.121 1.6625-1.0566.7859-1.4284 2.3081-2.8907 2.8629-1.2806.4854-2.3781.041-3.0705-.8708zm-10.3751-7.474-1.9345.6357c-.9441.3013-1.6812 1.0197-2.1746 1.8602-.7821 1.3314-.392 3.0795.7599 4.0646 1.2484 1.068 3.1083 1.251 4.5357 2.3136 1.5225 1.133 2.1003 3.2573 3.9243 3.9486 1.5233.5776 3.1008.0946 3.9913-1.2659.4533-.6926.7242-2.0292.7212-2.8492l-.006-1.4123c-.6812 1.0308-1.9613 1.5657-3.323 1.0495-1.4625-.5545-1.8341-2.0765-2.891-2.8629-1.0864-.8086-2.2668-.8243-3.2471-1.6625-1.0826-.9261-1.213-2.4178-.6281-3.4139.0824-.1401.1731-.2761.2722-.4055zm3.4532-12.3477-1.0882-1.5266c-.564-.7846-1.3327-1.4241-2.2942-1.6351-1.4835-.3261-2.9436.304-3.5404 1.7406-.6493 1.5641-.1008 3.6551-.7067 5.449-.6057 1.7929-2.4421 2.9959-2.5358 4.9387-.0782 1.619.867 2.9688 2.4296 3.3937.7965.2164 2.1473.0617 2.9238-.1941l1.1777-.3882c-1.1857-.3324-2.0846-1.383-2.0146-2.8334.0753-1.5621 1.4077-2.3859 1.8293-3.6339.4333-1.2833.019-2.7201.5139-3.9116.5468-1.3162 1.8673-1.7351 2.9962-1.4869.1056.0233.2088.0526.3094.0878z" fill="#fff" stroke="#050056" stroke-width=".5"/><path d="m285.4756 381.5761.2788 4.6227c.6395-.1873 1.3245-.1999 1.9656-.0589.5414.1188 1.0356.3529 1.4774.6737-.0958-.3286-.16-.6598-.1787-.9742-.0533-.8986.1527-1.7922.6261-2.5194zm24.0504-.1486-4.3669 1.7158c.3862.545.6132 1.2052.6873 1.8963.0601.5612.0192 1.143-.1193 1.6994.4694-.3127.9972-.5283 1.5773-.656.598-.1316 1.234-.1329 1.8381.0124zm7.7794 23.9655-3.2211-3.9145c-.48.6693-1.1792 1.1415-2.0255 1.3726-.3377.092-.7062.1471-1.0798.1676.3753.2947.6822.6675.9691 1.1554.3771.641.545 1.5017.4722 2.3738zm-19.6982 14.489 2.4977-3.913c-.8792-.251-1.6165-.8483-2.1481-1.6594-.1926-.2943-.3301-.6843-.4274-1.1049-.1151.3326-.2543.6398-.4166.8877-.4932.7533-1.2126 1.32-2.0578 1.5923zm-19.8273-14.6996 4.6525 1.2075c-.0237-.7057.1444-1.3971.4816-1.9714.3392-.5776.7815-1.1031 1.3187-1.5055-.4133.003-.8117-.0324-1.1433-.1223-.8289-.2253-1.5594-.6997-2.0753-1.3686z" fill="#fff" stroke="#050056" stroke-width=".5"/><path d="m250.5506 516.2055 1.5841 1.4265 2.5017-2.5687v11.6809h2.707v-15.3062h-2.0445z" fill="#1c1c21"/><path d="m273.2484 518.8025c0-3.5413-1.6754-7.6479-6.055-7.6479-3.1293 0-5.4515 2.3614-5.4515 5.3909 0 2.9704 2.2001 4.8384 5.2468 4.8384 1.0417 0 2.8414-.6545 3.5234-2.0877-.0323 1.8334-.7138 5.2092-3.7762 5.2092-1.2057 0-2.1207-.5392-2.9789-1.2194l-1.3245 2.1185c1.2701.9504 2.5876 1.6089 4.3522 1.6089 4.5072 0 6.4637-4.4124 6.4637-8.2109zm-3.0571-2.3914c0 1.4205-1.0447 2.4812-2.7155 2.4812s-2.8811-1.0811-2.8811-2.5037c0-1.4227 1.1246-2.5263 2.8225-2.5263 1.6978 0 2.7741 1.1282 2.7741 2.5488z" fill="#1c1c21"/><path d="m333.4675 519.1817c0-1.1168-.1428-2.1599-.4285-3.1297-.2856-.9698-.691-1.8149-1.2168-2.5348s-1.1618-1.282-1.9082-1.6862c-.7464-.4039-1.574-.6061-2.4828-.6061-.9087 0-1.736.2057-2.4824.6173-.7465.4114-1.3858.977-1.9178 1.6971-.5324.7199-.9444 1.5685-1.2366 2.5457-.292.977-.4383 2.0241-.4383 3.1407 0 1.1315.1431 2.1783.4284 3.1409.2859.9623.6914 1.8037 1.2171 2.5236.5256.7201 1.1618 1.282 1.9082 1.6862.7465.4039 1.5738.6061 2.4828.6061.9084 0 1.736-.2057 2.4822-.6173.7467-.4114 1.386-.977 1.9181-1.6971.5323-.7199.9443-1.5648 1.2365-2.5346.292-.9697.4381-2.0205.4381-3.1518zm-2.8237.044c0 1.7925-.4743 5.1416-3.2126 5.1416s-3.2514-3.397-3.2514-5.1856c0-1.7885.6352-5.1416 3.2128-5.1416 2.5775 0 3.2512 3.3931 3.2512 5.1856z" fill="#1c1c21"/><path d="m347.8213 522.5787c0-1.799-1.4419-2.8505-2.9775-3.6667 1.407-.8008 2.5788-1.9911 2.5788-3.5103 0-2.8851-2.8197-4.0757-5.3813-4.0757-2.5621 0-5.3813 1.188-5.3813 4.0757 0 1.5189 1.1724 2.71 2.5791 3.5103-1.6281.7748-2.9774 1.9355-2.9774 3.7565 0 3.1526 3.0428 4.2999 5.7796 4.2999 2.844 0 5.78-1.1491 5.78-4.3897zm-3.0867-6.6691c0 1.2335-1.144 1.9286-2.6933 1.9286-1.5492 0-2.693-.7184-2.693-1.9511 0-1.2328 1.212-1.9656 2.693-1.9656s2.6933.7545 2.6933 1.9881zm.3329 6.4897c0 1.4355-1.4355 2.2264-3.0262 2.2264s-3.0259-.7909-3.0259-2.2264 1.4226-2.204 3.0259-2.204c1.6034 0 3.0262.7685 3.0262 2.204z" fill="#1c1c21"/><path d="m267.8676 268.6164c-3.1481.5978-6.6409 1.6395-9.4409 3.1625-1.4473.7871-3.9511 2.5118-4.5163 4.147-.5773 1.6696 1.0976 4.7213 2.1896 5.92 1.0373 1.1385 2.5378 2.1111 4.0807 2.3237 2.2793.314 5.4857-1.7575 7.2627-3.0171 1.9006-1.3473 3.6263-2.8381 5.417-4.3098-.6858-3.3303-2.5844-5.8927-4.9928-8.2263z" fill="#fff"/><path d="m281.1306 267.1304-.0525-.0397c-1.0963-.1759-2.117-.4542-3.1744-.7998-.7335-.2396-1.5136-.5268-2.2795-.6296-.4201-.0564-.8288-.0534-1.2474.0151-.9376.1532-2.1203.6878-2.9797 1.0945-.8519.4027-2.0677.9932-2.9873 1.5622 2.4299 2.3826 4.2931 4.9779 5.0009 8.3028 3.5944.5339 8.9507 1.3936 12.3442.8585 2.0657-.3259 3.8199-1.0147 5.6116-1.9044-3.0733-1.7361-6.0878-4.1953-10.2359-8.4596z" fill="#0369b6"/><path d="m299.1701 264.0503c-1.0081-.416-2.3356-.7292-3.4049-.8642-5.1548-.6512-9.7171.6304-14.3886 3.3639 3.5201 3.6427 7.2544 7.13 11.8546 9.3607 1.758.8524 4.1543 1.0351 6.0774.9391 2.5359-.1269 5.0876-.7462 7.4189-1.7689-2.8244-3.5945-5.2018-7.1143-7.5574-11.0306z" fill="#fff"/><path d="m320.7325 279.1397c-1.0248-4.5315-2.5614-8.7885-4.6167-12.9658-2.6574-2.0538-5.3686-3.3212-8.7262-3.7206-.8286-.0986-2.0237.1898-2.8306.389-1.3175.3256-2.6175.7096-3.9425 1.0086-.2758.0622-.5528.1211-.8304.1752 2.1893 3.5939 4.6586 7.2048 7.3747 10.665 1.2457.595 2.461 1.2409 3.6731 1.9019.6574.3584 1.5007.8728 2.192 1.1357.5182.1972 1.0457.3721 1.5778.5283 1.2654.3716 4.4711 1.0912 6.1288.8827z" fill="#0369b6"/><path d="m321.2709 278.8841c1.2067-.6428 1.7305-1.755 3.5785-1.7489 1.8973.006 3.6458-.0347 5.5282.3374 1.6516.3264 3.4327.8759 5.0234 1.5796-.4399-2.8419-1.976-6.7877-3.1059-9.0976-.2113-.432-.686-.5763-1.1329-.4565l-.3514.1122-.251-.2798c-.9666-1.0776-2.1116-2.0576-3.3219-2.8523-.5111-.3354-1.6377-1.0199-2.2462-1.1165-2.3212-.3688-5.7678.1686-8.3504.5637 2.2229 4.5191 3.6622 8.7154 4.6296 12.9587z" fill="#fff"/><path d="m336.0182 279.2863c.7346.4226 1.5222 1.0495 2.0344 1.4534 1.4039 1.1072 2.7929 2.345 4.2996 3.304 1.1752.7477 1.2386.5225 2.3387-.097 4.6723-2.6317 3.4663-10.1651-.1246-13.1956-1.1024-.9302-2.8121-1.0144-4.1859-1.1056-2.5483-.1696-5.118-.158-7.6748-.1406.04.0592.0774.1236.1118.1942 1.3652 2.7908 2.8381 6.9227 3.2008 9.5872z" fill="#0369b6"/><path d="m340.04102 345.16016-.1836.0351c-10.31 1.91807-17.54564 5.70133-25.20508 11.03711-3.3104 2.3063-6.36516 4.92558-9.36914 7.56641l-.39843.34961h.52929 61.14453l-.32226-.33789c-3.60292-3.77974-7.41494-7.91771-10.07227-11.40821l-.14844-.19531-.16015.18555c-2.19548 2.53106-3.51966 5.37387-4.82422 9.75-4.02109-2.89678-7.2473-7.1904-9.59375-12.64649-.50532-1.1749-.95361-2.58531-1.34961-4.15429l-.0469-.18164z" fill="url(#u)"/></g><path d="m251.4934 299.9129c-.5976 3.3417-.5387 5.2784-.3425 8.5225.1673 2.7709.613 6.2519 1.6036 8.8443 1.14 2.9835 2.869 5.2115 4.8002 7.6189 2.3313 2.9056 5.2046 6.6694 9.0917 11.2962 3.7436-5.0117 7.0603-8.2495 11.0796-10.9459 3.6165-2.4263 7.8032-4.217 11.4446-5.8969 4.9908-2.3028 9.7938-4.7888 14.4107-8.0671 2.7825-1.9756 5.581-4.1743 8.1317-6.4626-2.2123.9911-4.4278 1.1324-5.8856-.1686-1.5434-1.3776-1.1415-4.0275-.3872-6.2569-3.5887 3.4248-8.266 5.7187-13.0047 7.7738-3.6413 1.579-7.4066 2.8695-11.1863 4.0719-4.9175 1.5639-9.908 3.1311-14.582 5.3388-1.5973.7546-2.9946 2.0364-4.6829 2.5857l-.6635.2158-.0928-.6916c-.2252-1.6812-1.5311-4.3012-2.5098-5.6998-.3938-.5624-.8428-1.0462-1.3278-1.529-.8928-.8892-1.6693-1.6471-2.3804-2.7087-1.5209-2.2709-2.3857-4.8624-3.3402-7.4-.0551-.1466-.1142-.2934-.1764-.4408z" fill="url(#n)"/><path d="m306.4422 297.3864c-.7667 1.8508-1.8936 5.3467-.2278 6.8335.2192.1954.4636.3562.73.4798 2.6026 1.2065 6.3578-1.1742 8.1952-2.8844.6575-.612 1.2651-1.2869 1.7924-2.0146 1.3225-1.8248 3.3571-4.053 3.4651-6.4223.1334-2.9223-2.617-7.2816-5.5429-7.9517-1.2242-.2801-2.4941.5801-3.308 1.4082-.6782.6893-1.2002 1.4347-1.5124 2.3599-.5846 1.733.2601 4.4306-.4315 5.8231-.8121 1.634-1.7009 1.7166-3.1601 2.3685z" fill="#fff" fill-rule="evenodd"/><path d="m262.777 332.389c-3.4322 10.4035-4.5522 20.0847-2.2103 28.7587 2.068 7.6595 7.0044 14.9159 14.9501 20.8134.1196-5.9008-.007-13.0654-.1919-18.1181-.001-11.2277-4.3098-22.9506-7.4439-28.3117-.2576.3329-.5136.6698-.7687 1.0113l-.4391.588-.4719-.5619c-1.1612-1.382-2.2982-2.7775-3.4243-4.1797z" fill="url(#m)"/><path d="m255.8477 282.4262c-3.4941 3.4231-6.2698 7.9662-5.6275 12.6751.2232 1.6373 1.2454 3.0573 1.9939 5.0477.9036 2.4026 1.7787 5.0411 3.2789 7.2811 1.2821 1.9145 2.5647 2.6039 3.7014 4.2279 1.1365 1.6241 2.3908 4.3202 2.6099 5.9562 1.5391-.5008 3.0475-1.8183 4.6146-2.5586 4.6622-2.2022 9.7548-3.8091 14.6541-5.3672 3.6761-1.1693 7.4882-2.4713 11.1312-4.0512 4.5726-1.983 9.8943-4.4402 13.7574-8.6082l.0326-.0768.0675-.0314c1.2503-1.3672 2.3435-2.918 3.2039-4.6935-.049-1.0882-.1003-2.2767.2174-3.2183.3539-1.0488.9388-1.8602 1.6486-2.5819 1.1074-1.1263 2.5235-1.8712 3.8523-1.5672 2.8232.6466 5.764 4.5881 5.9859 7.9023.4869-.6527.9613-1.3382 1.3971-2.0131.4977-3.735.0774-7.8853-.9919-11.2305-.2532.1269-.5179.1959-.9185.2153-1.7968.0908-4.9794-.4507-7.6374-1.4617-.82-.3117-2.875-1.5741-5.4589-2.8387-5.5382 2.5639-11.4061 2.4438-14.3828 1.0002-.3334-.1617-.664-.3298-.9929-.505-2.509 1.2745-4.1733 1.8301-6.1391 2.14-3.0128.4749-8.0054-.1985-11.9595-.776l-.9062.2072c-3.1142 2.5927-9.0511 7.7728-12.8783 7.2455-1.5369-.2115-3.0869-1.1132-4.2537-2.3192z" fill="url(#j)"/><path d="m268.27 335.0336c1.5869 2.6222 2.9145 5.8575 3.8985 8.6067 1.6633 4.6477 2.8852 9.6061 3.3963 14.5191.1471 1.415.2356 2.8376.2515 4.2607 4.8189-3.4996 9.63-7.0049 14.5098-10.4208 4.7756-3.3435 9.7227-6.763 14.7726-9.6747.7136-.4115 1.4299-.8182 2.1526-1.2128 3.9612-2.1633 7.7564-3.6476 12.1268-4.8012 2.666-.7037 5.4162-1.2808 8.1982-1.7687-5.448-2.808-10.2745-8.3031-11.3419-14.2921-1.0374-5.8203.4754-10.3665 2.1036-15.0544 1.2345-3.555 2.437-7.1942 3.4554-11.5336-1.1688 2.2039-2.8109 4.4036-4.258 6.0964-3.8361 4.4885-8.7986 8.5794-13.6174 12.0007-4.5563 3.235-9.4434 5.7862-14.5037 8.1209-3.8619 1.7815-7.8198 3.4738-11.3645 5.8519-3.8879 2.6084-6.9396 5.7011-9.7798 9.3019zm59.8197-.5807c3.2565-.5576 6.5524-.9959 9.8061-1.3743-.1041-.982-.1997-1.9618-.2874-2.9299-.4957-5.4672-.7315-10.5609-1.6448-13.4986-.456-1.4666-.8445-2.3938-2.4097-1.1666-3.0977 2.4289-5.1014 7.1197-5.4349 11.6863-.1723 2.3566-.118 4.8204-.0293 7.2831z" fill="url(#k)"/><path d="m275.9493 363.0419c.256 6.33.2967 12.6615.324 18.9955 3.8159-1.6036 7.4819-3.1698 11.1229-5.2281 3.692-2.0869 7.1795-4.413 10.4625-7.0979 5.5689-4.5545 10.6547-9.6666 16.5757-13.7914 8.2841-5.7711 15.6618-9.2917 25.3203-11.0942-.7906-3.3048-1.3649-7.2342-1.7957-11.1615-19.7037 2.3472-25.6676 5.1839-32.5699 9.1638-8.4229 4.8568-21.8063 14.6662-29.4398 20.2138z" fill="url(#l)"/><path d="m370.6667 367.8654c1.5806-1.4252 3.1271-2.9132 4.7797-4.2471 1.3642-1.1014 3.1382-2.3708 4.9122-2.6294.9684-.141 1.913.0005 2.6877.6319 1.7272 1.4077 1.7576 4.5272 2.048 6.5744.437 3.0776.7401 6.1255 1.3392 9.1856.1683.8599.3519 1.7171.5498 2.5707 1.1989 5.1745 3.2992 11.9709 6.2066 16.4457 3.1458 4.8414 7.0539 8.1153 12.669 9.4968 1.5182-5.2623 2.9696-11.6115 7.4781-15.2542 4.3343.821 8.6517 2.6091 12.5055 4.7099 1.3834.7541 3.3126 1.8549 4.4559 2.9426 6.7799 6.449 6.9568 15.9445 4.1849 24.3434-1.7482 5.2969-4.0661 10.1456-6.4897 15.0453.2029-.2694.4054-.5394.6069-.8098 4.6098-6.1882 9.2566-13.182 12.4013-20.2422 3.5543-7.9783 6.7668-16.5638 6.8522-25.4172.0425-4.4215-.869-8.6282-2.4193-12.4463-2.4994-6.1556-6.863-11.3025-13.0825-14.7145 1.891-.7715 3.926-1.095 5.976-1.302 2.3271-.2354 5.3659-.3071 7.2215-1.9138 1.3675-1.1837 2.6858-2.9226 3.3821-4.6032 1.0475-2.5293 1.1944-5.2646 2.4381-7.7256 1.2203-2.4152 2.6996-3.8035 5.2091-4.8661.1565-.0663.4823-.3863.1848-.4078-2.5793-.1862-4.9551-.323-7.5385-.0907l-.1959.0174-.1666-.1049c-1.4198-.8963-2.8174-1.8293-4.24-2.7198-1.0518-.6585-2.1263-1.2904-3.2689-1.78-1.6384-.7023-3.2934-1.0389-5.0597-1.2278-5.3783-.5745-11.3215.5346-16.6753 1.2113-1.89.2392-3.7858.4479-5.6879.5622-10.3314.6213-22.4246 1.4989-31.8225-3.6422-6.0046-3.2851-11.2067-9.3623-15.3039-14.7977-1.7747-2.3543-3.4185-4.9334-5.0204-7.4128-4.1429-6.4131-7.8445-13.1491-12.1457-19.4467-2.2472-3.2898-4.6668-6.5521-7.63-9.2245l-.3317-.2808c-1.3248-.8961-2.7398-2.1177-3.9842-3.0993-.5475-.4319-1.1031-.8536-1.6011-1.1784l.0003.006c-1.866-.9515-4.1372-1.6466-5.827-1.9805-1.9933-.3938-3.7888-.321-5.4174-.3263-1.3523-.005-1.9047.7279-2.777 1.3503l-.1873.1332c1.3402 4.0916 1.6739 9.1855.7561 13.3626-.9659 4.3968-2.2778 8.5777-3.752 12.8235-1.7507 5.0403-3.0525 9.3087-2.0805 14.7615 1.0207 5.7248 5.5888 10.937 10.6797 13.6895-.0749-2.2345-.11-4.4822.0528-6.7099.3147-4.3108 2.1812-9.3767 5.6561-12.1013 1.9243-1.5088 2.7413-.4211 3.3234 1.4514.571 1.8364.8089 4.0032 1.0023 5.9149.2593 2.5634.4337 5.1374.6665 7.7038.1166 1.2856.2445 2.5702.388 3.8531.3208 2.8674.7131 5.748 1.2743 8.5791.4471 2.2568 1.027 4.6996 1.9377 6.8171 2.0144 4.6844 4.9203 9.0741 9.0119 12.1764 1.0579-3.463 2.3428-6.584 4.7674-9.3792l.4683-.5402.4333.569c2.2644 2.9741 4.8343 5.8133 7.38 8.5496 2.2426 2.4107 4.532 4.7756 6.8183 7.1444z" fill="url(#r)"/><path d="m429.8704 398.6881c-2.1281 2.6726-6.8878 7.67-11.0184 8.9864-4.1667 1.3281-8.4214 1.365-12.6971 1.2942-5.1606-.0852-10.3546-.3847-15.4634.4825-5.0838.863-9.4095 3.1668-14.2208 5.8116v5.105c5.3502 2.0386 9.0081 4.0838 14.0752 7.5691-4.4772 1.2224-8.5855 3.6063-11.7649 6.9798-.7922.8405-1.5601 1.7348-2.3103 2.64v53.4058c1.5742-1.5957 3.2423-3.1955 4.9594-4.0439 1.1086-.5475 2.2426-.7873 3.3502-1.1609 1.4242-.4803 2.8061-1.1011 4.0361-2.0124 3.2178-2.3834 6.4986-6.8795 7.2273-10.6069.3933-2.0116.3754-4.4779-1.2002-6.8148-2.0257-3.0049-5.718-5.4078-7.3607-6.2372-.3079 3.5778-.8069 8.4738-3.7186 8.5299-1.6868.0326-2.416-1.4562-2.4426-2.6554-.0265-1.1992.6497-2.1086 1.2637-2.9362 2.5712-3.4668 7.6765-6.6674 12.8126-9.4583 2.2919-1.2454 4.5964-1.7576 6.7101-2.8771 3.2995-1.7472 6.4323-4.3919 8.4591-6.3163-1.6504 5.1556-3.0725 8.1241-1.5359 10.9704 1.1223 2.0788 3.8609 5.5446 6.8082 8.4687 1.0453-3.6395 2.9026-8.8312 4.9446-13.3033 1.5292-3.3492 3.5853-7.1421 5.6704-11.0419 3.35-6.7685 5.4294-10.8096 7.4768-17.0135 2.7927-8.4618 2.4335-17.5885-4.0335-23.74z" fill="url(#p)"/><path d="m388.9928 460.2624c2.5657.6595 7.037 3.1225 9.0215 5.8615.9967 1.3754.6534 6.2251.4361 8.2134 2.9797-.825 7.0129-5.8658 8.7209-6.3926 3.6301-1.1193 8.129.5634 9.3554-2.5826.5463 1.2676.5556 2.577.4277 3.4933-.4181 2.9929-3.2747 4.4921-4.2089 6.9644-.544 1.4401-.2856 3.0508-.4512 5.0871-.2419 2.9787-1.3567 5.6632-3.3071 4.6958-2.6217-1.3-4.7324-3.6574-7.4181-4.6404-1.051-.3845-2.2158-.6868-3.4827-.3772-.4449.1087-1.0842.4636-1.2404 1.0698-.1216.4714.0981 1.1466.6046 1.6539 1.9052 1.9089 4.2557 1.8976 6.49 2.4799 2.2191.5784 4.0247 1.7907 5.075 3.8506.9019 1.7689.801 3.0406 1.1374 5.1616.1879 1.185.4103 3.0699 1.5564 4.78 1.1218 1.6743 3.0922 3.4377 5.7271 5.8031.8743.7852 1.0146.5612-.0392 1.1701-3.2466 1.8759-11.3331 4.44-15.0524 2.3233-5.212-2.9658-.0165-13.2418-2.9727-18.4588-1.1554-2.0394-4.7817-3.9555-7.245-5.8523 2.7707 4.7818 4.347 6.8601 5.2807 9.8989.8362 2.7224 1.1059 5.9475.387 8.7073-.6213 2.386-1.9329 5.5744-2.5757 8.1811-.3924 1.5909-.1919 4.5072.4704 7.1669 1.23 4.9402.5204 4.354-.2892 4.0704-4.3778-1.5336-10.7884-5.6114-11.5609-10.069-.6092-3.5159 1.2626-6.8765 3.1354-10.2652 1.2002-2.1721 2.4037-4.1584 2.9519-6.5746.5705-2.5154.111-5.3171-1.3953-8.6449-.661 2.3243-1.4009 5.1857-2.0439 7.3001-.6193 2.0369-1.5799 5.5995-2.6478 6.4586-2.2358 1.7985-5.3985 2.8448-7.3691 3.6888v-12.7045c1.6364-1.6784 3.3993-3.4422 5.217-4.3403 1.0447-.5159 2.1809-.7611 3.2784-1.1314 1.4924-.5033 2.9259-1.1547 4.1963-2.0961 3.2277-2.3907 6.6738-6.9831 7.4518-10.9625.5018-2.5654.1964-5.0487-1.2886-7.2513-1.4345-2.1279-3.9623-4.3-6.3328-5.7362z" fill="url(#q)"/><path d="m361.7011 312.0417c2.9506-7.1436 2.528-14.5845 5.4301-18.9931 2.8394-4.3141 6.5367-6.5737 9.1345-7.0047.1698 2.6885-.0769 3.7062.3109 6.1771 2.0831 5.4748 10.5154 8.5202 6.7225 17.9123 1.9496-1.1693 3.6311-2.5732 4.874-4.8292 1.1926-2.1645 2.1187-5.3856 1.936-8.7685-.2503-4.6361-1.9772-9.7568-1.1269-14.487.5533-3.0788 2.3-6.0378 4.8133-8.2705 1.1625 1.1531 1.8968 2.5065 3.2535 3.2231 1.9709 1.0412 3.0191.7553 4.3679 1.2495 2.1051.7712 4.281 2.2168 7.9341 9.0263 3.396-8.3835 5.4182-17.0656-.3827-23.7299 8.0564-2.6585 16.4237-1.6749 19.4952 7.0144.8667 4.122.821 4.8455 1.1928 7.0052.2305 1.3389.5341 2.7249.6009 4.4498.119 3.0841-.7088 8.3185-3.5189 14.144 6.1715-3.2209 12.7049-3.6617 19.4573 1.4357-1.5283.8018-3.958 1.9428-4.667 2.4805-1.4135 1.0723-2.2793 2.7135-3.1089 4.2635-2.4903 4.6521-3.6662 10.5263-10.3771 14.0525-2.5601 1.345-5.9467 2.3134-10.5518 2.6764 1.7088.775 3.5227 1.9039 5.0247 3.0105 1.2439.9168 1.9069 1.6971 3.442 2.3748 1.1286.4985 3.2815.5362 4.9761.5733-2.7469 2.2947-9.8858 6.718-13.0502 7.0891-6.3128.7401-17.9174-2.6256-25.3664-2.4019-3.6311.1089-7.058.8374-10.5781 2.9807-5.4612-3.1394-10.4267-8.7558-14.67-14.3854-1.4635-1.9413-3.6318-5.2663-4.9963-7.3782-.1916-.2965-.3819-.5932-.5715-.8903z" fill="url(#o)"/><path d="m360.1513 219.6908c-.7462 7.6863.7955 15.263 5.0469 22.1505 3.3065 5.3571 7.6163 10.1527 17.8443 14.55-1.4585 1.8162-6.9558 3.5006-13.5891 4.6156 2.9896 3.2603 9.3895 7.4301 15.4976 8.3476 3.2668.4909 6.6343-.4163 10.0621-1.5222 7.0201-2.2646 14.3045-6.1752 21.5435-6.2814 4.0537-.0594 9.393 1.0781 12.2704 8.2839-.7131-3.1382-2.5417-7.3183-4.2861-10.3981-2.1053-3.7176-4.447-6.404-5.6457-10.2783-1.1855-3.8318-.005-8.0766-.454-12.0386-.3377-2.9827-1.9089-4.3813-4.6707-5.6533-2.3157-1.0667-5.3977-1.9067-8.1669-3.7393-3.4605-2.2904-5.852-5.3548-8.3896-9.4874-.4314 1.913-.1147 2.3812-.2977 3.8109s-.6469 2.825-.5988 4.1027c.07 1.8655.1681 3.9929.8968 6.4731-2.6382-2.5594-5.7476-4.3621-9.1274-5.7254-5.4665-2.2049-14.0242.1964-20.0741-1.0694-3.51-.7344-5.7617-3.552-7.8615-6.1409z" fill="url(#s)"/><path d="m169.2537 291.5711c-2.8124-4.9331-4.3025-11.0116-4.3432-17.2384-.0412-6.3426 1.6612-12.4016 4.8282-17.1583 1.0225-1.5359 2.2083-3.0318 3.4519-4.3973 2.3746-2.6071 4.964-5.0764 7.0448-8.798 1.8948-3.3887 3.4087-8.3512 4.4342-12.8966 1.4054-6.2291 1.666-10.7467 5.0797-15.1146 2.2229-2.844 4.94-4.9534 7.8423-6.2622-.2047 4.3745 3.6749 7.3231 5.6824 12.0742 1.2045 2.8501 1.5864 6.3525.8887 11.2012 2.9562-3.2833 6.9147-6.8555 11.2025-8.108 4.2221-1.233 8.9221-1.0864 13.7486-2.2411 4.534-1.0846 9.019-3.0623 13.9175-7.6504-.3332 8.2164-2.165 15.3413-4.9127 20.8508-3.4228 6.8633-9.1736 11.6916-16.0959 15.1958 4.8376 1.3012 8.6017 2.2079 12.2525 3.8593-1.5017.7022-3.9261 1.6734-5.578 2.8015-1.6109 1.1001-2.6867 2.2843-4.062 3.1529-.8248.5209-1.9211.9297-2.8518 1.1385-3.046.6832-6.1662 1.0745-9.3102 1.1622-8.0347.2242-16.2374-.8185-23.8475 1.2624-4.6702 1.277-10.3849 4.5398-13.9377 7.9452-1.4299 1.3702-2.6599 2.8154-3.5474 4.5562-2.0758 4.0727-2.3495 9.0865-1.8869 14.6647z" fill="url(#d)"/><path d="m169.9645 293.1191c-7.8601.9656-12.6162.272-18.1522-4.465 1.556 13.3957 9.9891 26.4498 26.432 33.0952-2.1627 4.3371-6.652 7.5443-12.6053 7.5084 6.0046 5.147 15.7761 7.5205 24.1528 6.6859 8.5703-.8544 18.1765-3.432 27.1484-.6494 3.4173-2.7912 6.6156-5.8818 9.7503-8.9133 4.0153-3.8832 7.5122-8.2091 11.3508-12.2497 1.0118-1.0652 2.0727-2.1352 3.1892-3.1551-3.2906-4.5806-6.3443-10.3241-9.5242-14.0449-2.5814-3.0202-4.9046-5.125-6.7165-7.333-1.8554-2.2611-2.7128-4.1364-2.5801-7.2857.0493-1.1683-.3533-.9512-.6622-.1342-2.9643 7.8415-8.0504 17.3802-12.2957 20.0103-4.8836-7.5812 1.9534-15.5678-4.0464-32.079-7.109 2.4382-9.5892 9.6152-10.2252 20.319-4.0004-5.3068-5.9119-8.1705-6.8714-12.7672-.4105-1.967 1.0353-7.3023 3.1141-13.2936-.8897.1625-1.7714.3595-2.6437.5981-4.6324 1.2664-10.2217 4.4806-13.689 7.8041-1.3614 1.3046-2.571 2.7123-3.4317 4.4003-2.1968 4.3103-2.2163 9.6408-1.8255 14.3528l.1411 1.574-.0273-.0276z" fill="url(#g)"/><path d="m250.4452 305.8523c-8.747 2.846-14.9403 12.8131-23.3505 20.9464-5.6852 5.4981-11.4237 11.0017-18.1884 14.7334-6.0266 3.3248-11.3796 3.6354-17.6884 3.0348-2.7329-.2601-4.9569-.5568-7.7791-1.0697-4.6733-.8491-9.0445-2.0166-13.5856-3.3672-3.0729-.914-5.9662-1.4067-8.5733.2677-4.0911 2.6276-10.9226 8.4429-13.0823 10.3346 1.7398 1.1598 4.2521 2.6099 5.6275 4.324 3.4665 4.3202 6.6338 7.476 12.0798 7.2703-10.6741 9.3342-16.4839 20.2252-15.9705 32.2418.3744 8.7682 4.6705 21.2651 14.8206 29.1143-.4282-1.8703-.8665-3.1557-1.2633-4.8578-.3286-1.4103-.6691-3.1076-.5953-5.6609.1112-3.8419 1.3503-7.5117 3.2863-10.8053 3.7524-6.3841 10.3463-12.2697 16.676-17.3335-.9739 8.5352 3.6041 11.7727 7.8337 16.8423 1.3506 1.6188 2.7085 3.0247 3.1976 6.2466 3.2176-5.1116 6.0057-10.6499 7.3878-15.2428 1.2275-4.0788.9593-6.7526 1.5154-9.3617.9269-4.3505 4.3217-11.4947 8.1409-14.891-.9121 2.4191-1.3721 4.6063-.8994 6.4192.6375 2.4451 2.6731 3.824 4.6723 5.6821 1.4107 1.3109 2.9263 2.6875 4.3724 4.1132v-20.8847h14.9309c1.9264-6.0633 1.4279-18.2647 6.9063-18.5764-1.0146 3.8766.616 5.8383 2.6463 8.1323 2.0303 2.2944 4.8429 5.0509 6.6977 9.254 2.2912-3.9599 5.2989-8.4414 8.5087-12.6667.1814-6.1945 1.6215-12.4059 3.5747-18.2427-1.7525-2.1896-3.4832-4.3935-5.2428-6.5866-1.9833-2.4721-3.7436-4.7756-4.8897-7.775-1.0338-2.7055-1.4666-6.1296-1.641-9.0167-.0525-.8714-.1031-1.7447-.1253-2.6183z" fill="url(#e)"/><path d="m166.2747 430.2758c.7763 7.2566-.4848 14.0289 2.3321 20.3683 1.6137 3.6316 4.3042 6.9917 8.0552 9.9125-.0567-1.5343.1081-2.7992.62-3.9337 1.1271-2.4971 3.4615-4.3768 5.4223-7.1482 1.2954-1.8313 2.2363-3.9779 2.9402-6.7255 6.2842 7.2253 12.9666 9.1972 17.9869 12.2307 2.1997 1.3291 4.0816 2.6592 5.4695 5.0676 2.3865 4.1402 2.7108 7.9085 2.0682 13.8139 4.1516-4.2659 7.8022-18.3674 7.8777-25.2297.1143-10.3617-1.7509-15.9083-10.2247-23.445 3.5523-.9825 6.7933-2.9903 10.2573-5.4455v-5.0917c-2.5815-5.378-5.3883-9.4044-10.6445-11.5103-3.1857-1.2767-7.0812-.8672-10.9906.0655-.9821 1.8129-2.0235 3.5684-3.0624 5.219l-.8321 1.3223-.2346-1.5447c-.2285-1.5048-.6183-2.5391-1.1992-3.4966-5.2298 1.6089-10.5699 3.4347-16.1555 3.8168-3.3417.2288-7.1947-.8126-10.0513-4.4533-1.4393 2.8328-2.3389 5.9129-2.4317 9.1127-.0632 2.1746.1529 4.1764.7257 6.2724.2821 1.0318.5559 2.0934.8349 3.1713.6337 2.4448.9687 5.1416 1.2366 7.6512z" fill="url(#h)"/><path d="m208.605 460.3516c-6.6487 1.3715-10.661 4.4463-12.9524 12.6225-5.5537.8627-7.5043-5.0282-12.853-5.8355-3.2563-.4917-5.9443 1.4668-9.4864 1.6372-1.5126.0728-1.7689.5897-1.4107.9421.2148.2116.6519.2836 1.1708.3913 1.9557.4059 3.4383 1.1592 4.6053 2.0894 3.8121 3.0394 4.2613 7.9768 6.8666 8.9409 2.3695.8766 4.9488-1.228 7.4556-2.8834.9064-.5988 1.801-1.1309 2.666-1.4254 3.6374-1.2381 3.5497-.0369.6466 1.8116-3.212 2.045-6.2456 3.6673-8.7321 6.0782-4.286 4.1561-6.5789 9.5438-5.7728 16.4546-2.3417.9732-6.7357 1.8811-3.8579 4.0269 4.3222 3.2229 11.0139 2.976 12.98-1.1248.8955-1.868 1.6195-5.1958 1.4918-7.7597-.2125-4.2749-.1943-11.0285 7.3944-15.5612-.1711 2.7848-.6443 4.6-2.1266 7.1547-1.578 2.7196-3.4541 4.2669-3.6078 7.0825-.4085 7.4879 5.5901 10.9856 4.0775 23.3341-.1921 1.5679 1.3329 2.0839 3.1324.204 2.3136-2.4176 4.5681-6.1452 5.3444-10.2477 1.1643-6.1526-1.1959-12.574-1.7336-17.149-.3923-3.3376.2278-4.7617 1.934-5.1098 1.3678-.2788 2.437 1.0447 2.3561 2.302-.1256 1.9527-1.9296 6.0446-1.0058 12.917.2692 2.0025.9126 3.5335 2.0543 4.24 3.0755 1.9029 6.5355 1.4494 9.4192.7255-2.6668-2.624-3.0983-3.9102-3.5624-6.4437-.4095-2.235 1.2573-5.3262.8984-7.5769-.2768-1.7363-.2642-3.3371.1332-5.2104.3531-1.6656 2.1074-2.5958 2.2689-4.2317.1501-1.5197.046-1.5662-1.3349-1.366-10.6476 1.5432-17.4594-2.5508-17.2925-9.8539.0533-2.3324 1.1991-4.349 3.1852-5.8272 1.8371-1.3673 4.3606-2.0546 7.0599-2.23-.3432-1.0293-.8045-2.0626-1.4117-3.1182z" fill="url(#i)"/><path d="m239.71875 346.63281-.45313.45508c-1.38812 1.39158-2.02749 4.25513-2.57226 7.44531s-.96272 6.71096-1.73828 9.34375l-.0957.32227h.33593 14.70313l-.47266-1.07227c-1.60937-3.64682-3.99114-6.12895-6.54687-9.01757-1.97961-2.23629-3.30564-4.07513-3.1875-6.83399zm19.27539 4.6211-.44141.59179c-2.72799 3.66411-5.25885 7.49194-7.50195 11.36914l-.56836.98438h.4336 10.27929l-.12109-.33594c-.30974-.85973-.58706-1.7356-.82813-2.6289-.81824-3.03078-1.20003-6.12899-1.24218-9.24415z" fill="url(#t)" fill-rule="evenodd"/><path d="m429.0085 563.6148c2.5717 3.9504 6.5177 6.9134 9.2128 10.8127 1.6117 2.3323 2.5947 5.2172 2.2085 8.0701-.4649 3.4362-3.3884 6.4864-5.7898 8.8114-16.3267 15.8047-36.955 23.6897-58.5579 29.2594-7.1024 1.8313-14.285 3.3462-21.509 4.6108-20.4403 3.5775-41.395 5.3199-62.145 5.2248-10.0922-.0462-20.1842-.6296-30.2244-1.646-11.2368-1.1372-22.4284-2.8286-33.4736-5.1953-5.1364-1.1008-10.2414-2.3503-15.2969-3.7782-20.4175-5.7658-45.2634-16.0418-58.8601-32.9744-3.0113-3.7501-2.3342-8.5892.2729-12.3058 1.5137-2.1579 3.5085-3.9101 5.3103-5.815 1.5655-1.6552 2.933-3.3647 3.9322-5.3791-4.1559.8395-9.2478 1.2674-13.2065.363-5.7597-1.3157-10.4898-4.7486-10.7358-11.1817-.0546-1.4266.1214-2.7977.5129-4.1695.4254-1.4906 1.0639-3.0297 1.6567-4.4582.7184-1.7307 1.3511-3.4822 1.8124-5.3001.614-2.4234-.04-5.8242-.5758-8.242-.4477-2.0189-1.091-4.3851-1.338-6.6199-.1812-1.639-.3589-3.7079-.1587-5.3396.227-1.8493 1.1926-3.351 2.575-4.5383l-.0137-14.5256c-.001-1.5089.6451-1.9879 2.0639-2.1355 3.9987-.4148 11.4644-.7603 15.0216 1.14 2.9982 1.6019 4.458 3.5411 4.415 7.0168l-.0844 6.7218.0475 15.8729c.6587-.0172 1.3172-.0407 1.9754-.0685 4.1657-.1754 8.3203-.5478 12.4704-.9386 6.4753-.6094 12.9625-1.3622 19.4722-1.4446 3.4379-.0429 6.9755.0941 10.3442.8246 4.8214 1.0457 10.998 3.7474 11.0548 9.5177l.0134-.0192v35.1394l-.4115.348c-3.5899 3.0391-10.2785 2.3341-14.604 1.618-1.7611-.2917-3.511-.6536-5.2501-1.0639 12.6152 5.0926 26.1128 8.3327 39.4947 10.5862 18.0564 3.0409 36.4813 4.3667 54.7829 4.4989 16.859.1215 33.835-.9919 50.5214-3.4095 6.06-.8778 12.0942-1.9438 18.0749-3.2602 8.8529-1.9489 17.634-4.4595 26.0824-7.7751-1.1733.2528-2.3515.4805-3.535.6764-4.3255.7161-11.0141 1.4211-14.604-1.6177l-.4115-.3486.0131-35.0188c-.0152-5.8401 6.2054-8.567 11.0551-9.6188 3.3687-.7306 6.9063-.9939 10.3443-.951 6.5096.0824 12.9968.8352 19.4721 1.4446 4.1501.3908 8.3047.7632 12.4704.9386.6582.0278 1.3167.0513 1.9754.0685l.0475-15.742-.0844-6.7263c-.043-3.4757 1.4168-5.6677 4.415-7.2696 3.5573-1.9003 11.0232-1.5548 15.0221-1.14 1.4185.1476 2.0644.5005 2.0634 2.0091l-.0137 14.9048c1.3824 1.1873 2.348 2.689 2.575 4.5383.1901 1.5475.1365 3.8146-.0323 5.3396-.2472 2.235-.8903 4.601-1.338 6.6199-.5358 2.4178-1.0634 5.945-.4494 8.3683.4613 1.818 1.094 3.5694 1.8124 5.3002.5927 1.4284.9785 2.8412 1.4039 4.3318.3915 1.3718.6939 2.7428.6393 4.1695-.246 6.4331-5.2289 9.866-10.9886 11.1817-3.8804.8867-8.8453.4927-12.9453-.3112z" fill="#050056" fill-rule="evenodd"/><path d="m220.2483 539.4474v30.9385c-4.2598 3.6061-14.8022 1.9812-29.8701-2.8068-1.4461-.751-2.87-1.5419-4.2643-2.3832-6.8949-4.1604-15.4202-10.1451-19.7697-17.0496l-.3076-.4886c-1.0508-3.2641-.9211-7.6568 3.1248-9.2808 2.2365-.8979 5.2592-.1669 6.9975.6402 10.4391 4.8472 17.1899 7.4096 24.6177 7.6604 7.6264.2575 15.7663-1.9785 19.4717-7.2301z" fill="url(#z)"/><path d="m143.1745 521.2527c-.3458 4.6596 3.3227 12.8232 2.0805 17.723-1.5975 6.3004-4.1283 8.7275-3.947 13.4713.207 5.4137 4.3201 8.7468 10.212 10.0928 3.9628.9052 9.5554.4097 14.2082-.702 1.3817-3.827 1.0306-7.5463.0774-11.346-.454-1.8126-.7268-3.5343-.8746-5.4068-.2495-3.1675.9074-6.0006 4.0138-7.2476 2.2454-.9016 5.3295-.3364 7.4591.6525 7.6173 3.537 15.8641 7.3185 24.3924 7.6064 6.3972.2162 15.0593-1.4317 18.977-6.9841.7032-.9972.4588-2.001.4618-3.2087.009-3.4936-2.8722-6.904-10.1385-8.4798-2.9501-.6398-6.3633-.8451-10.0834-.7983-12.7016.1605-31.4269 3.5977-42.738 2.0983-6.9194-.9171-11.7138-3.4261-14.1007-7.471z" fill="url(#w)"/><path d="m164.9196 528.5187-.0647-21.6375c-1.0478 1.7563-2.0728 2.894-3.3096 3.4911-2.3619 1.14-5.1657.6471-8.04 1.0803-4.9973.7533-9.8104 3.1006-10.2954 7.0512-.086.7007-.0107 1.3528.1809 1.9714l.2844.482c2.7788 4.7089 8.5718 6.5137 13.6763 7.1902 2.4664.3268 5.034.4051 7.5681.3713z" fill="url(#y)"/><path d="m145.7932 513.6586-.0134-14.3614c-.0005-.8571.1742-.8897 1.021-.9777 3.5183-.365 11.0419-.7603 14.3537 1.0091 2.1051 1.1246 3.1271 2.3162 3.5497 3.7838.5673 1.9721.2379 2.6222-.7922 4.1798-.6787 1.0265-1.5272 2.0296-2.6195 2.5566-2.2112 1.0675-5.4154.6585-7.8739 1.029-2.3566.3552-5.3739 1.205-7.6254 2.7808z" fill="url(#x)"/><path d="m165.8523 548.4562c3.9372 6.2501 11.5394 12.1557 19.9613 17.2374 4.2082 2.5394 8.7698 4.6721 13.5894 6.6763 29.0665 12.0884 67.6244 15.5001 96.0114 15.7051 19.5895.1413 45.6146-1.5806 68.8546-6.697 11.231-2.4724 21.0743-5.5939 29.5066-9.1504 13.8017-5.8209 24.04-13.0222 31.985-22.031-1.042 4.0535-.7513 8.6572.8452 11.9772 2.5156 5.2301 7.2097 8.2894 10.4062 12.915 1.5258 2.2077 2.3455 4.7956 2.0129 7.2528-.3655 2.7004-2.5151 5.4205-5.4465 8.2581-15.3634 14.8727-34.3386 22.5444-57.7864 28.59-27.8861 7.1899-58.9426 9.9105-83.3583 9.7988-22.2153-.1016-51.8715-3.0032-78.6845-10.5755-24.1445-6.8186-45.9856-17.4743-58.0169-32.4572-2.5831-3.2171-2.0106-7.283.4449-10.7836 2.783-3.9681 7.7492-6.874 10.028-12.9471 1.3197-3.5171 1.5308-7.3257-.3529-13.7689z" fill="url(#v)"/><g transform="matrix(-1 0 0 1 592.96223 0)"><path d="m220.2483 539.4474v30.9385c-4.2598 3.6061-14.8022 1.9812-29.8701-2.8068-1.4461-.751-2.87-1.5419-4.2643-2.3832-6.8949-4.1604-15.4202-10.1451-19.7697-17.0496l-.3076-.4886c-1.0508-3.2641-.9211-7.6568 3.1248-9.2808 2.2365-.8979 5.2592-.1669 6.9975.6402 10.4391 4.8472 17.1899 7.4096 24.6177 7.6604 7.6264.2575 15.7663-1.9785 19.4717-7.2301z" fill="url(#z)"/><path d="m143.1745 521.2527c-.3458 4.6596 3.3227 12.8232 2.0805 17.723-1.5975 6.3004-4.1283 8.7275-3.947 13.4713.207 5.4137 4.3201 8.7468 10.212 10.0928 3.9628.9052 9.5554.4097 14.2082-.702 1.3817-3.827 1.0306-7.5463.0774-11.346-.454-1.8126-.7268-3.5343-.8746-5.4068-.2495-3.1675.9074-6.0006 4.0138-7.2476 2.2454-.9016 5.3295-.3364 7.4591.6525 7.6173 3.537 15.8641 7.3185 24.3924 7.6064 6.3972.2162 15.0593-1.4317 18.977-6.9841.7032-.9972.4588-2.001.4618-3.2087.009-3.4936-2.8722-6.904-10.1385-8.4798-2.9501-.6398-6.3633-.8451-10.0834-.7983-12.7016.1605-31.4269 3.5977-42.738 2.0983-6.9194-.9171-11.7138-3.4261-14.1007-7.471z" fill="url(#w)"/><path d="m164.9196 528.5187-.0647-21.6375c-1.0478 1.7563-2.0728 2.894-3.3096 3.4911-2.3619 1.14-5.1657.6471-8.04 1.0803-4.9973.7533-9.8104 3.1006-10.2954 7.0512-.086.7007-.0107 1.3528.1809 1.9714l.2844.482c2.7788 4.7089 8.5718 6.5137 13.6763 7.1902 2.4664.3268 5.034.4051 7.5681.3713z" fill="url(#y)"/><path d="m145.7932 513.6586-.0134-14.3614c-.0005-.8571.1742-.8897 1.021-.9777 3.5183-.365 11.0419-.7603 14.3537 1.0091 2.1051 1.1246 3.1271 2.3162 3.5497 3.7838.5673 1.9721.2379 2.6222-.7922 4.1798-.6787 1.0265-1.5272 2.0296-2.6195 2.5566-2.2112 1.0675-5.4154.6585-7.8739 1.029-2.3566.3552-5.3739 1.205-7.6254 2.7808z" fill="url(#x)"/></g><path d="m367.6003 591.3088-13.742 2.6313.7042 4.0207 4.2322-.8104 2.6116 14.9134 4.7287-.9052-2.6117-14.9137 4.2325-.8104z" fill="#fff" fill-rule="evenodd"/><path d="m386.0311 595.8041c-.1509-.6916-.3645-1.3774-.6304-2.0556-.2675-.6825-.5984-1.3258-.9955-1.939-.3915-.6099-.8559-1.1597-1.391-1.6403-.5321-.486-1.1385-.8786-1.8243-1.1809-.6804-.2988-1.4476-.4775-2.2919-.5334-.8452-.0609-1.7782.0324-2.8004.2748-1.1936.2884-2.2485.7705-3.1547 1.4481-.9064.6775-1.6367 1.5301-2.1852 2.566-.5485 1.0356-.8877 2.2332-1.0116 3.6015-.1249 1.3634-.005 2.8854.366 4.5545.3168 1.4079.7844 2.6379 1.3931 3.6869.6076 1.0447 1.347 1.8875 2.2224 2.527.8708.6403 1.8591 1.0541 2.9599 1.2419 1.1052.1868 2.3127.1218 3.6195-.1891 1.2833-.315 2.343-.7745 3.1824-1.365.8428-.596 1.4982-1.2982 1.9605-2.1099.4679-.8078.7814-1.6971.9424-2.6579.164-.9664.2055-1.9739.1274-3.0282-.0781-1.0546-.2412-2.1216-.4886-3.2014zm-5.0381 1.8417c.2695 1.1974.4409 2.2009.5056 3.0128.0687.8107.0346 1.4666-.093 1.9706-.1284.499-.3509.8837-.6628 1.1529-.3165.2703-.7197.4578-1.2118.5718-.4772.1201-.9229.138-1.3382.0493s-.7995-.3223-1.1569-.6992c-.3628-.3804-.6939-.9433-1.0063-1.686-.3092-.7477-.5991-1.7133-.8676-2.9061-.2737-1.1961-.4044-2.2616-.3943-3.1862.0104-.9242.1767-1.6787.5094-2.2601.3313-.5859.8457-.9656 1.5388-1.1377.4932-.1289.9437-.1479 1.3448-.0604.4001.0829.7654.3116 1.0938.6812.3339.3733.6395.9236.9218 1.6544.2826.7308.5546 1.6769.8167 2.8427z" fill="#fff" fill-rule="evenodd"/><path d="m405.7191 578.7204-4.7301 1.8541.804 4.809c.0635.3847.1451.8316.247 1.3445.1034.5172.2126 1.0619.3367 1.6352.1246.5733.2515 1.1405.3865 1.7044.1312.5657.2558 1.0895.3804 1.5741.1226.4797.2376.889.3392 1.2244l-.0247.01c-.3125-.7217-.6284-1.4024-.9596-2.0477-.3296-.6408-.6468-1.2371-.9592-1.7811-.3122-.5442-.592-1.0267-.8509-1.4534l-3.3646-5.5823-4.9281 1.932.9721 5.3353c.1762.9524.362 1.8672.5498 2.7363.1934.8718.3777 1.6685.5609 2.3864.179.7196.3461 1.3303.495 1.8301l-.0248.01c-.0865-.2182-.2583-.59-.5149-1.1112-.2566-.5217-.6249-1.2161-1.1097-2.0826-.4851-.8663-1.1147-1.9178-1.8867-3.1602l-2.7815-4.4779-4.6804 1.8346 10.9163 16.3649 4.8293-1.893-1.0346-5.5775c-.1146-.6362-.2379-1.2689-.3683-1.9092-.1287-.6355-.2546-1.2378-.3789-1.8111-.1285-.5715-.2412-1.0753-.3534-1.5152-.1067-.4367-.1942-.7729-.269-1.01l.0248-.01c.1284.2803.3026.6319.522 1.0543.2196.4224.4689.8873.7487 1.3948.2793.5073.5738 1.0288.8786 1.566.3049.5369.6049 1.0611.9042 1.5707l2.8427 4.8684 4.7299-1.8541z" fill="#fff" fill-rule="evenodd"/><path d="m427.8391 587.6612-9.4785-16.7227-3.8983 2.2919 2.9375 5.1823c.1585.2798.3347.5814.5245.9072.1896.3256.3837.6593.588.9924.2002.3355.4014.6545.5996.959.1959.3009.3796.5711.547.8034-.3453-.3036-.6962-.5986-1.0582-.8868-.3581-.2904-.7173-.5644-1.0672-.8225-.3526-.2619-.6928-.4939-1.0133-.6999l-6.1624-4.0222-3.944 2.3187 9.4787 16.7228 3.8981-2.2916-2.6655-4.7027c-.3921-.6915-.7609-1.3063-1.1014-1.8528-.3438-.544-.6463-1.006-.9074-1.3857-.2634-.3837-.4745-.6754-.6277-.8733.321.2965.6595.5882 1.0078.8791.3484.291.6977.5655 1.0402.8281.3422.2621.6691.497.9719.7078l6.1113 4.1482z" fill="#fff" fill-rule="evenodd"/><path d="m179.0486 593.8892 9.2863-16.7489-4.0371-2.3739-3.3248 6.0425-3.2252-1.8963 3.3247-6.0428-4.0374-2.3739-9.286 16.7489 4.0372 2.3739 3.9583-7.0708 3.2252 1.8966-3.9583 7.0708z" fill="#fff" fill-rule="evenodd"/><path d="m199.6651 596.4411 4.8161-12.2469-4.4553-1.8109-4.5763 11.637c-.2222.5778-.4719 1.0411-.7454 1.3819-.2753.345-.6034.5553-.9803.6329-.3768.0776-.8275.0124-1.3546-.2017-.5169-.2149-.8824-.4962-1.097-.8438-.2146-.3473-.3054-.7527-.274-1.2118.0311-.4585.1554-.9582.3746-1.5027l4.5464-11.5611-4.4804-1.821-4.7363 12.0439c-.2297.5844-.4069 1.0723-.5336 1.4676-.1269.3956-.206.7316-.2452 1.0152-.0394.2838-.0424.5477-.0118.8008.0263.2515.0824.5245.1582.8207.2207.9444.7384 1.7932 1.5434 2.5477.8049.7546 1.8933 1.413 3.2621 1.9694.8604.3448 1.6554.5745 2.3915.6971.7335.1163 1.4059.1439 2.0088.0797.6069-.063 1.144-.1934 1.6132-.3954.4691-.2025.8705-.4519 1.2037-.7487.2075-.1858.3915-.3958.5553-.6289.1621-.229.3233-.5169.4806-.8556.1632-.3415.3382-.7616.5363-1.2654z" fill="#fff" fill-rule="evenodd"/><path d="m218.7036 598.4575c.5485-1.8627.7732-3.5078.6761-4.9259-.1013-1.419-.548-2.6417-1.3457-3.6652-.384-.4835-.7978-.8801-1.2454-1.1921-.4525-.3131-.9042-.5639-1.364-.7552-.4598-.1914-.8976-.3474-1.3132-.4682l-6.3021-1.9029-5.3545 18.3388 6.4816 1.957c.7985.2411 1.5285.366 2.186.3738.6574.008 1.2686-.0799 1.8258-.2694.5614-.1886 1.0962-.4611 1.6036-.814.7257-.4964 1.3472-1.0818 1.8659-1.7603.5175-.6741.9606-1.4277 1.3268-2.2525.3676-.8291.6868-1.7155.9591-2.6639zm-5.0009-1.682c-.2945 1.0088-.5811 1.8478-.8589 2.5133-.2768.6608-.5503 1.184-.8155 1.567-.2596.3796-.5207.6536-.7773.8152-.256.1612-.5131.2457-.7666.255-.2536.009-.5073-.029-.7621-.1107l-1.5372-.4641 3.0806-10.551 1.4092.4256c.2788.0794.5303.1889.7586.3292.2242.1395.4145.3306.5616.5753.1454.2492.2427.5695.2842.9683.0399.4035.0154.9022-.0713 1.5008-.0877.6033-.2571 1.3255-.5053 2.1761z" fill="#fff" fill-rule="evenodd"/><path d="m235.2916 602.222c.4264-1.9067.5442-3.5666.3554-4.9705-.1929-1.4047-.7179-2.5816-1.5798-3.5275-.4146-.4461-.8529-.8033-1.3198-1.0725-.4716-.2702-.9385-.4783-1.4097-.6264-.4709-.1481-.9178-.2631-1.3402-.345l-6.4103-1.3127-4.1539 18.7682 6.5929 1.3501c.8121.1663 1.5487.2232 2.2049.1701.6565-.0533 1.2604-.1971 1.8041-.4375.5477-.2397 1.0636-.5609 1.5469-.9593.6919-.5619 1.274-1.2027 1.7477-1.9266.4722-.7197.8655-1.5116 1.1774-2.3673.3132-.8602.5741-1.7729.7844-2.7431zm-5.0979-1.213c-.2285 1.0323-.4601 1.895-.6942 2.5836-.2333.684-.4721 1.2307-.7118 1.6369-.2345.4022-.4772.6994-.7226.884-.245.1845-.496.2924-.7485.3253-.252.0326-.5078.0179-.7674-.0399l-1.5634-.3201 2.3897-10.798 1.4335.2935c.2831.0533.5412.1393.778.2578.2328.1183.435.291.5976.5215.1612.2348.2788.545.346.9386.0662.3981.0738.8973.0263 1.5017-.0485.6094-.1706 1.3445-.3632 2.2151z" fill="#fff" fill-rule="evenodd"/><path d="m247.722 614.4302.6393-4.059-6.2946-.8895.6092-3.8685 4.583.6476.6092-3.8687-4.5828-.6476.502-3.1875 5.6099.7927.9731-3.9561-10.6668-1.5073-2.9905 18.9881z" fill="#fff" fill-rule="evenodd"/><path d="m265.6316 616.5649c-.089-.3048-.201-.6767-.3357-1.1203-.1345-.4436-.2834-.9208-.4411-1.4314-.1537-.5101-.3117-1.0207-.4702-1.5268-.1592-.5015-.3089-.9696-.4459-1.3948-.136-.43-.251-.779-.343-1.0566-.1145-.3491-.2543-.6774-.4277-.9818-.1731-.3089-.3607-.573-.5659-.7972-.2015-.2197-.4062-.3749-.6143-.4654.7472-.0523 1.4325-.2591 2.0563-.6246.6282-.365 1.1519-.9024 1.5756-1.6122.4244-.7141.7012-1.6185.8399-2.7087.0994-.7983.0673-1.5409-.0965-2.2274-.1633-.6916-.4919-1.3071-.9899-1.8483-.4934-.5453-1.1852-.9952-2.0755-1.3549-.8895-.364-2.0116-.6137-3.3606-.757l-6.3502-.6535-2.2702 19.0878 4.7362.4873.8989-7.5584c.2563.0219.4788.068.6668.138.1881.0702.3524.1888.4934.3556.1406.1671.273.407.3918.7197.1191.3124.2356.7219.3539 1.2282l1.2965 5.539zm-4.483-13.8783c-.0468.4297-.1618.7965-.3352 1.093-.1777.2912-.4315.5101-.7729.641-.3375.1365-.7756.179-1.3092.1242l-1.3495-.1391.4626-3.8886 1.3227.136c.4947.0465.8984.1433 1.2111.2911.3081.1474.5285.3592.6602.6411.1274.2808.1638.6494.1102 1.1013z" fill="#fff" fill-rule="evenodd"/><path d="m282.6074 610.7797c.0371-.7664-.0332-1.4315-.2068-1.9947-.1737-.5631-.4227-1.0419-.7475-1.4362-.325-.3941-.689-.7209-1.1011-.9851-.4115-.2641-.8349-.4828-1.2694-.6559-.4345-.1686-.8531-.3135-1.2505-.4297l-1.8604-.5685c-.4497-.137-.8051-.2975-1.0571-.4821-.2565-.1802-.4322-.3753-.5321-.5816-.0998-.2063-.1458-.4196-.1299-.6304.0142-.2619.1021-.4929.2551-.6941.1574-.2007.3789-.3532.6645-.4664.2859-.1087.6347-.1598 1.0424-.1441.4295.0164.883.0895 1.3645.2136.4773.1241.952.2942 1.4236.5147.4677.2204.9062.4807 1.3117.7818l2.4759-3.4094c-.5323-.4161-1.1387-.7798-1.8187-1.0865-.6853-.3023-1.4221-.5467-2.2161-.7244-.7891-.1777-1.618-.2831-2.482-.3165-1.0414-.0354-2.0065.0791-2.8955.344-.889.2695-1.6696.6671-2.3422 1.1977-.6729.5354-1.205 1.182-1.6016 1.9436-.3968.7621-.6251 1.618-.6814 2.5724-.0509 1.0973.0899 2.0227.4264 2.7715.3367.7535.8314 1.3705 1.4802 1.846.6532.4805 1.4231.8506 2.3099 1.119l2.1481.6623c.4196.1218.7626.2593 1.0303.4029.2671.1484.4618.3213.5844.5192.1223.1979.1759.4391.1607.7191-.0149.3534-.1203.6575-.3116.9125-.1914.2548-.4818.4505-.8751.5827-.3891.1322-.8938.1908-1.5139.1671-.6335-.0291-1.2586-.1267-1.8799-.2932-.6208-.1712-1.2087-.3822-1.7631-.638-.5546-.2513-1.0503-.5233-1.483-.8115l-1.8839 3.7909c.6013.368 1.2451.6918 1.9309.9803.6863.2841 1.4236.5146 2.2219.6926.794.1779 1.6584.2846 2.5838.3248 1.2093.0465 2.3162-.0627 3.3205-.3231 1.0086-.2601 1.8837-.6769 2.6331-1.237.7498-.5645 1.3435-1.2776 1.7806-2.1347.4375-.8615.6873-1.8635.7543-3.0156z" fill="#fff" fill-rule="evenodd"/><path d="m295.9932 598.4969-10.214.051-.2081 19.2212 4.7613-.0237.0869-8.0251 4.1496-.0207.0422-3.916-4.1761.021.0351-3.2267 5.1336-.0255z" fill="#fff" fill-rule="evenodd"/><path d="m303.3328 617.7234-.2935-19.2199-4.8654.1511.2935 19.2202z" fill="#fff" fill-rule="evenodd"/><path d="m318.8433 617.3129-.1439-4.1066-6.3489.3228-.137-3.9137 4.6225-.2351-.137-3.9139-4.6225.2351-.113-3.2247 5.6584-.2879.2037-4.0689-10.7591.547.6724 19.2106z" fill="#fff" fill-rule="evenodd"/><path d="m333.0752 611.9424-6.2784.5675-1.1244-15.0989-4.7948.4335 1.4274 19.1691 10.1726-.9196z" fill="#fff" fill-rule="evenodd"/><path d="m348.6003 604.3885c-.185-1.9448-.5869-3.5598-1.2012-4.836-.6183-1.276-1.4817-2.2328-2.5944-2.8652-.5321-.2958-1.0597-.4998-1.587-.611-.532-.1109-1.0404-.1643-1.5343-.1592-.4937.005-.9542.0341-1.3812.0869l-6.5018.7366 1.8617 19.1322 6.6869-.7578c.8237-.0933 1.5416-.2672 2.1493-.521.6077-.2537 1.1372-.5775 1.5798-.9744.4467-.3976.8377-.8627 1.1739-1.3913.4841-.7484.839-1.5378 1.0652-2.373.2262-.8306.3551-1.7052.3867-2.6155.0314-.9148-.003-1.8637-.1036-2.8513zm-5.2231.4252c.1024 1.0523.1494 1.9443.1401 2.6716-.0101.7227-.068 1.3164-.1701 1.7767-.0984.4553-.2371.8132-.4133 1.0645-.176.2512-.381.4317-.611.5409-.2298.1092-.4772.1744-.7421.1999l-1.5857.1795-1.071-11.007 1.4537-.1648c.2859-.0369.5576-.0352.8198.004.2578.0401.5037.1418.7295.3106.226.1732.434.4318.6198.7854.1863.3582.348.8301.4899 1.4198.1425.5943.2542 1.3311.3404 2.2186z" fill="#fff" fill-rule="evenodd"/></g></svg>